<svg width="1604" height="1004" viewBox="0 0 1604 1004" fill="none" xmlns="http://www.w3.org/2000/svg">
<path d="M1602.5 1002.5H1063.5V1000.5H1600.5V2.5H501.5C225.91 2.5 2.5 225.91 2.5 501.5C2.5 777.09 225.91 1000.5 501.5 1000.5H871.5V1002.5H501.5C224.805 1002.5 0.5 778.195 0.5 501.5C0.5 224.805 224.805 0.5 501.5 0.5H1602.5V1002.5Z" fill="#EE3124"/>
<path d="M1602.5 1002.5H1063.5V1000.5H1600.5V2.5H2.5V1000.5H871.5V1002.5H0.5V0.5H1602.5V1002.5Z" fill="#EE3124"/>
<path d="M1334.5 1003H1332.5V765.5H1334.5V1003ZM1603.5 631H1334.5V700.5H1332.5V629H1603.5V631Z" fill="#EE3124"/>
<path d="M838.109 329.5V328.5V328.5V329.5ZM981.501 472.892H982.501V472.892H981.501ZM943.438 653.824H944.438V653.824H943.438ZM831.853 765.408V766.408V766.408V765.408ZM720.269 653.824H719.269V653.824H720.269ZM694.719 472.892H693.719V472.892H694.719ZM838.109 329.5V330.5C916.75 330.5 980.501 394.251 980.501 472.892H981.501H982.501C982.501 393.147 917.854 328.5 838.109 328.5V329.5ZM981.501 472.892H980.501C980.501 495.458 975.252 516.794 965.91 535.751L966.807 536.193L967.704 536.635C977.179 517.41 982.501 495.771 982.501 472.892H981.501ZM943.438 653.824H942.438C942.438 714.898 892.927 764.408 831.853 764.408V765.408V766.408C894.031 766.408 944.438 716.003 944.438 653.824H943.438ZM831.853 765.408V764.408C770.779 764.408 721.269 714.898 721.269 653.824H720.269H719.269C719.269 716.003 769.674 766.408 831.853 766.408V765.408ZM702.615 519.938L703.56 519.61C698.48 504.977 695.719 489.258 695.719 472.892H694.719H693.719C693.719 489.484 696.518 505.425 701.671 520.266L702.615 519.938ZM694.719 472.892H695.719C695.719 394.251 759.469 330.5 838.109 330.5V329.5V328.5C758.364 328.5 693.719 393.147 693.719 472.892H694.719ZM720.269 653.824H721.269C721.269 611.098 717.62 560.106 703.56 519.61L702.615 519.938L701.671 520.266C715.618 560.438 719.269 611.158 719.269 653.824H720.269ZM966.807 536.193L965.91 535.751C948.83 570.407 942.437 615.319 942.438 653.824H943.438H944.438C944.437 615.481 950.812 570.911 967.704 536.635L966.807 536.193Z" fill="#EE3124"/>
<path d="M820.671 383.727L820.671 382.727H820.671V383.727ZM930.922 490.618H931.922V490.618H930.922ZM905.315 627.697H906.315V627.697H905.315ZM830.23 711.646V712.646V712.646V711.646ZM755.146 627.697H754.146V627.697H755.146ZM745.295 459.102H744.295V459.102H745.295ZM781.202 564.114L781.896 564.834L781.202 564.114ZM787.136 530.901L786.244 531.354L787.136 530.901ZM779.287 522.109L779.837 521.274L779.287 522.109ZM820.671 383.727L820.671 384.727C824.957 384.727 829.158 385.089 833.245 385.785L833.413 384.799L833.581 383.813C829.384 383.099 825.07 382.727 820.671 382.727L820.671 383.727ZM919.504 446.789L918.635 447.283C925.789 459.87 929.922 474.715 929.922 490.618H930.922H931.922C931.922 474.366 927.698 459.181 920.373 446.294L919.504 446.789ZM930.922 490.618H929.922C929.922 501.235 928.08 511.379 924.727 520.695L925.668 521.034L926.609 521.373C930.04 511.841 931.922 501.467 931.922 490.618H930.922ZM905.315 627.697H904.315C904.315 673.617 871.044 710.646 830.23 710.646V711.646V712.646C872.353 712.646 906.315 674.505 906.315 627.697H905.315ZM830.23 711.646V710.646C789.417 710.646 756.146 673.616 756.146 627.697H755.146H754.146C754.146 674.505 788.108 712.646 830.23 712.646V711.646ZM755.146 627.697H756.146C756.146 602.548 766.14 580.035 781.896 564.834L781.202 564.114L780.508 563.395C764.35 578.983 754.146 602.02 754.146 627.697H755.146ZM779.287 522.109L779.837 521.274C759.63 507.976 746.295 485.096 746.295 459.102H745.295H744.295C744.295 485.797 757.992 509.292 778.737 522.945L779.287 522.109ZM745.295 459.102H746.295C746.295 418.025 779.594 384.727 820.671 384.727V383.727V382.727C778.49 382.727 744.295 416.921 744.295 459.102H745.295ZM781.202 564.114L781.896 564.834C790.741 556.301 793.611 541.448 788.028 530.449L787.136 530.901L786.244 531.354C791.409 541.529 788.753 555.44 780.508 563.395L781.202 564.114ZM787.136 530.901L788.028 530.449C786.158 526.765 783.289 523.546 779.837 521.274L779.287 522.109L778.737 522.945C781.897 525.025 784.531 527.979 786.244 531.354L787.136 530.901ZM925.668 521.034L924.727 520.695C913.833 550.966 904.315 595.466 904.315 627.697H905.315H906.315C906.315 595.753 915.771 551.486 926.609 521.373L925.668 521.034ZM833.413 384.799L833.245 385.785C868.038 391.709 901.168 416.552 918.635 447.283L919.504 446.789L920.373 446.294C902.637 415.09 869.018 389.847 833.581 383.813L833.413 384.799Z" fill="#EE3124"/>
<circle cx="818.928" cy="459.487" r="44.6538" stroke="#EE3124" stroke-width="2"/>
<circle cx="1059.32" cy="640.483" r="32.9661" transform="rotate(-8.022 1059.32 640.483)" stroke="#EE3124" stroke-width="2"/>
<path d="M1065.84 597.931C1070.46 593.969 1076.73 592.6 1083.05 595.97C1090.37 599.872 1096.61 605.52 1101.23 612.413C1105.85 619.305 1108.69 627.23 1109.51 635.484C1110.34 643.739 1109.11 652.069 1105.94 659.737C1102.78 667.404 1097.77 674.173 1091.36 679.443C1084.95 684.712 1077.35 688.321 1069.21 689.948C1061.08 691.575 1052.67 691.171 1044.73 688.772C1037.87 686.7 1034.4 681.308 1033.92 675.241C1033.65 671.887 1034.3 668.323 1035.78 664.972C1036.29 665.461 1036.81 665.932 1037.35 666.388C1036.19 669.269 1035.69 672.276 1035.91 675.085C1036.33 680.432 1039.33 685.052 1045.31 686.858C1052.93 689.162 1061.01 689.549 1068.82 687.987C1076.63 686.424 1083.94 682.959 1090.09 677.898C1096.24 672.837 1101.05 666.337 1104.09 658.973C1107.13 651.61 1108.31 643.61 1107.52 635.683C1106.73 627.756 1104 620.145 1099.57 613.525C1095.13 606.906 1089.14 601.482 1082.11 597.735C1076.6 594.799 1071.22 595.957 1067.14 599.449C1065.01 601.282 1063.24 603.759 1062.03 606.62C1061.33 606.565 1060.62 606.531 1059.92 606.519C1061.23 603.102 1063.29 600.122 1065.84 597.931Z" fill="#EE3124"/>
<path d="M21.6562 358.067C87.8824 354.336 169.246 347.082 346.547 442.665C467.324 507.776 638.526 557.718 706.463 535.853" stroke="#EE3124" stroke-width="2"/>
<path d="M0.5 460.509C70.0644 456.778 155.529 449.524 341.767 545.107C468.633 610.218 648.464 660.161 719.826 638.295" stroke="#EE3124" stroke-width="2"/>
<path d="M1114.18 247.831C1129.75 246.749 1143.23 258.344 1144.3 273.7C1145.36 289.057 1133.62 302.403 1118.04 303.485C1102.46 304.567 1088.99 292.972 1087.92 277.615C1086.85 262.259 1098.6 248.913 1114.18 247.831Z" stroke="#EE3124" stroke-width="2"/>
<circle cx="1132.01" cy="353.478" r="27.8939" transform="rotate(-3.97258 1132.01 353.478)" stroke="#EE3124" stroke-width="2"/>
<path d="M1153.91 402.922C1169.49 401.84 1182.96 413.435 1184.03 428.791C1185.1 444.148 1173.35 457.494 1157.77 458.576C1142.2 459.658 1128.72 448.063 1127.65 432.706C1126.59 417.35 1138.33 404.004 1153.91 402.922Z" stroke="#EE3124" stroke-width="2"/>
<path d="M1168.34 260.434C1143.77 162.398 1197.15 110.751 1245.23 105.17C1303.35 98.4219 1351.59 161.488 1360.89 241.541C1372.51 341.606 1355.49 458.841 1288.16 474.964C1220.83 491.088 1205.68 409.432 1168.34 260.434Z" stroke="#EE3124" stroke-width="2"/>
<path d="M1196.67 263.749C1177.74 181.312 1214.97 138.861 1249.11 134.897C1290.39 130.105 1325.67 183.615 1333.46 250.771C1343.21 334.716 1332.82 432.613 1285.13 445.118C1237.44 457.624 1225.45 389.039 1196.67 263.749Z" stroke="#EE3124" stroke-width="2"/>
<path d="M294.297 658.947L513.679 777.6L446.872 905.917L415.367 889.165L454.408 813.658L297.406 732.865L258.996 804.016L225.641 787.264L294.297 658.947Z" stroke="#EE3124" stroke-width="2"/>
<rect x="475.5" y="1.5" width="364" height="172" stroke="#EE3124" stroke-width="2"/>
<rect x="525.5" y="1.5" width="266" height="119" stroke="#EE3124" stroke-width="2"/>
<rect x="587.853" y="378.412" width="266" height="14" transform="rotate(-161.564 587.853 378.412)" stroke="#EE3124" stroke-width="2"/>
<path d="M559.977 369.12L555.025 382.724L565.362 386.485L570.416 372.6L572.313 373.232L566.558 389.049L552.462 383.919L558.078 368.487L559.977 369.12ZM504.984 350.788L496.087 378.568C495.459 380.53 496.539 382.63 498.5 383.259C500.462 383.887 502.563 382.806 503.191 380.844L512.062 353.147L513.959 353.779L505.096 381.454C504.13 384.468 500.904 386.128 497.891 385.163C494.877 384.198 493.216 380.972 494.182 377.958L503.087 350.155L504.984 350.788ZM482.791 343.39L473.26 369.577C472.555 371.513 473.553 373.653 475.488 374.357C477.424 375.062 479.565 374.064 480.27 372.128L489.87 345.749L491.769 346.382L482.149 372.812C481.067 375.786 477.777 377.32 474.804 376.237C471.83 375.155 470.298 371.866 471.38 368.893L480.892 342.756L482.791 343.39ZM458.871 335.415L447.501 361.979C446.69 363.873 447.568 366.066 449.462 366.877C451.356 367.687 453.549 366.809 454.359 364.915L465.973 337.783L467.876 338.417L456.197 365.702C454.952 368.611 451.584 369.96 448.675 368.715C445.766 367.469 444.417 364.101 445.662 361.192L456.967 334.781L458.871 335.415ZM438.116 328.497L428.261 355.577C427.556 357.513 428.554 359.653 430.489 360.357C432.425 361.062 434.566 360.064 435.271 358.128L445.196 330.856L447.094 331.489L437.15 358.812C436.068 361.786 432.778 363.32 429.805 362.237C426.831 361.155 425.299 357.866 426.381 354.893L436.218 327.864L438.116 328.497ZM582.632 344.884L577.104 360.072L575.206 359.439L580.069 346.079L569.732 342.316L564.767 355.959L562.868 355.326L568.537 339.753L582.632 344.884ZM415.647 321.007L406.153 349.206C405.496 351.158 406.545 353.274 408.497 353.932C410.449 354.589 412.565 353.539 413.223 351.587L422.725 323.365L424.622 323.998L415.118 352.225C414.108 355.224 410.858 356.837 407.858 355.827C404.86 354.817 403.248 351.567 404.258 348.568L413.75 320.374L415.647 321.007ZM394.247 313.872L384.059 341.867C383.354 343.803 384.351 345.944 386.287 346.649C388.223 347.354 390.366 346.355 391.07 344.419L401.328 316.233L403.227 316.866L392.949 345.103C391.867 348.077 388.578 349.611 385.604 348.528C382.63 347.446 381.096 344.157 382.179 341.183L392.349 313.239L394.247 313.872ZM516.769 307.441C517.734 304.428 520.959 302.767 523.973 303.731C526.986 304.697 528.648 307.923 527.683 310.937L518.23 340.446L516.332 339.813L525.777 310.327C526.406 308.365 525.325 306.264 523.363 305.636C521.402 305.008 519.301 306.09 518.673 308.052L509.255 337.454L507.357 336.821L516.769 307.441ZM496.705 299.312C497.787 296.339 501.075 294.805 504.049 295.887C507.023 296.969 508.556 300.258 507.474 303.231L496.558 333.222L494.66 332.589L505.595 302.548C506.299 300.612 505.301 298.471 503.365 297.767C501.43 297.062 499.29 298.061 498.585 299.996L487.581 330.229L485.682 329.596L496.705 299.312ZM474.801 293.121C476.046 290.212 479.414 288.862 482.323 290.107C485.232 291.353 486.581 294.722 485.336 297.631L473.404 325.503L471.501 324.868L483.497 296.844C484.308 294.95 483.43 292.757 481.536 291.946C479.642 291.136 477.45 292.015 476.64 293.908L464.399 322.501L462.495 321.866L474.801 293.121ZM351.888 299.752L347.025 313.111L357.362 316.874L362.327 303.231L364.225 303.864L358.558 319.437L344.462 314.307L349.989 299.119L351.888 299.752ZM451.706 285.312C452.788 282.339 456.076 280.805 459.05 281.887C462.023 282.969 463.557 286.258 462.475 289.231L451.884 318.329L449.985 317.696L460.596 288.548C461.3 286.612 460.302 284.471 458.366 283.767C456.431 283.062 454.291 284.061 453.586 285.996L442.906 315.336L441.008 314.703L451.706 285.312ZM427.886 278.394C428.896 275.395 432.146 273.781 435.145 274.791C438.143 275.801 439.757 279.051 438.747 282.05L429.089 310.73L427.192 310.098L436.852 281.412C437.509 279.46 436.458 277.344 434.506 276.687C432.554 276.03 430.439 277.079 429.781 279.031L420.115 307.738L418.218 307.106L427.886 278.394ZM407.504 271.604C408.586 268.63 411.874 267.096 414.849 268.179C417.823 269.261 419.357 272.55 418.274 275.524L408.017 303.706L406.118 303.073L416.395 274.841C417.099 272.904 416.1 270.762 414.164 270.058C412.228 269.353 410.088 270.352 409.383 272.288L399.037 300.712L397.139 300.079L407.504 271.604ZM374.632 275.271L369.015 290.704L367.117 290.071L372.069 276.467L361.732 272.704L356.677 286.592L354.779 285.959L360.537 270.142L374.632 275.271Z" fill="#EE3124"/>
<line x1="1332.84" y1="764.56" x2="1417.41" y2="795.342" stroke="#EE3124" stroke-width="2"/>
<path d="M1197.5 788.505C1197.61 788.506 1197.72 788.51 1197.83 788.512C1198.08 788.516 1198.33 788.521 1198.57 788.527C1198.85 788.534 1199.13 788.54 1199.4 788.55C1199.67 788.559 1199.93 788.571 1200.2 788.582C1200.45 788.593 1200.7 788.604 1200.96 788.617C1201.26 788.633 1201.55 788.65 1201.85 788.669C1202.07 788.682 1202.28 788.695 1202.5 788.71C1202.83 788.734 1203.17 788.761 1203.51 788.788C1203.69 788.803 1203.87 788.817 1204.05 788.833C1204.38 788.862 1204.7 788.893 1205.03 788.926C1205.25 788.947 1205.47 788.97 1205.68 788.993C1205.97 789.024 1206.25 789.057 1206.54 789.09C1206.78 789.119 1207.03 789.148 1207.27 789.179C1207.57 789.216 1207.86 789.255 1208.15 789.295C1208.38 789.326 1208.6 789.356 1208.83 789.389C1209.11 789.43 1209.39 789.474 1209.68 789.518C1209.93 789.556 1210.17 789.594 1210.42 789.635C1210.71 789.682 1210.99 789.731 1211.28 789.781C1211.5 789.82 1211.73 789.859 1211.95 789.9C1212.25 789.954 1212.54 790.011 1212.83 790.067C1212.98 790.096 1213.13 790.123 1213.28 790.152C1213.36 790.168 1213.44 790.186 1213.52 790.202C1213.81 790.261 1214.11 790.322 1214.4 790.385C1214.62 790.433 1214.85 790.481 1215.07 790.53C1215.35 790.592 1215.63 790.657 1215.91 790.722C1216.16 790.778 1216.4 790.834 1216.64 790.893C1216.9 790.954 1217.15 791.018 1217.4 791.081C1217.67 791.148 1217.94 791.215 1218.2 791.284C1218.45 791.348 1218.69 791.415 1218.94 791.481C1219.19 791.55 1219.44 791.617 1219.7 791.688C1219.96 791.762 1220.23 791.84 1220.5 791.917C1220.74 791.988 1220.98 792.059 1221.23 792.132C1221.5 792.214 1221.77 792.298 1222.04 792.383C1222.26 792.452 1222.49 792.521 1222.71 792.592C1222.98 792.679 1223.25 792.769 1223.53 792.859C1223.76 792.938 1224 793.015 1224.24 793.096C1224.47 793.176 1224.71 793.259 1224.94 793.342C1225.21 793.437 1225.48 793.531 1225.75 793.629C1225.98 793.711 1226.21 793.794 1226.43 793.878C1226.64 793.956 1226.85 794.032 1227.06 794.111L1227.06 794.107L1228.22 794.564C1228.31 794.599 1228.4 794.634 1228.49 794.669L1228.92 794.84L1228.92 794.843C1229.11 794.923 1229.31 795.006 1229.5 795.087C1229.7 795.17 1229.9 795.253 1230.1 795.337C1230.38 795.455 1230.66 795.577 1230.94 795.698C1231.15 795.79 1231.36 795.881 1231.57 795.975C1231.81 796.085 1232.06 796.197 1232.3 796.31C1232.55 796.421 1232.79 796.531 1233.03 796.645C1233.27 796.755 1233.5 796.869 1233.74 796.981C1233.98 797.097 1234.22 797.213 1234.46 797.331C1234.67 797.436 1234.88 797.542 1235.1 797.648C1235.36 797.782 1235.63 797.916 1235.89 798.053C1236.08 798.151 1236.27 798.252 1236.47 798.353C1236.75 798.501 1237.03 798.649 1237.31 798.801C1237.49 798.897 1237.67 798.996 1237.85 799.094C1238.13 799.247 1238.41 799.401 1238.69 799.558C1238.87 799.662 1239.05 799.768 1239.24 799.873C1239.51 800.03 1239.79 800.187 1240.06 800.347C1240.25 800.46 1240.44 800.574 1240.63 800.688C1240.89 800.841 1241.14 800.994 1241.39 801.148C1241.6 801.272 1241.8 801.397 1242 801.522C1242.25 801.681 1242.5 801.839 1242.76 802C1242.94 802.116 1243.12 802.234 1243.3 802.352C1243.57 802.524 1243.83 802.697 1244.1 802.873C1244.16 802.914 1244.22 802.953 1244.28 802.994C1244.39 803.068 1244.5 803.144 1244.61 803.219C1244.88 803.401 1245.15 803.584 1245.42 803.77C1245.59 803.889 1245.76 804.009 1245.94 804.13C1246.18 804.302 1246.43 804.475 1246.67 804.65C1246.88 804.799 1247.08 804.949 1247.29 805.1C1247.51 805.262 1247.73 805.424 1247.95 805.588C1248.15 805.737 1248.35 805.888 1248.55 806.039C1248.77 806.21 1249 806.382 1249.22 806.556C1249.41 806.704 1249.6 806.854 1249.79 807.004C1250.02 807.182 1250.24 807.36 1250.47 807.54C1250.66 807.694 1250.85 807.849 1251.04 808.005C1251.25 808.176 1251.45 808.348 1251.66 808.521C1251.86 808.691 1252.07 808.861 1252.27 809.032C1252.48 809.211 1252.68 809.39 1252.89 809.57C1253.08 809.729 1253.26 809.889 1253.44 810.049C1253.65 810.239 1253.87 810.429 1254.08 810.621C1254.25 810.778 1254.43 810.937 1254.6 811.096C1254.83 811.303 1255.05 811.511 1255.28 811.722C1255.43 811.86 1255.57 811.999 1255.72 812.138C1255.96 812.367 1256.2 812.597 1256.44 812.83C1256.49 812.882 1256.55 812.933 1256.6 812.985L1256.61 812.981L1257.31 813.688C1257.38 813.755 1257.44 813.822 1257.51 813.889C1257.68 814.058 1257.85 814.228 1258.01 814.398C1258.23 814.619 1258.44 814.84 1258.66 815.063C1258.8 815.217 1258.95 815.372 1259.09 815.527C1259.24 815.679 1259.38 815.829 1259.52 815.981C1259.59 816.052 1259.65 816.124 1259.72 816.194C1259.88 816.369 1260.04 816.545 1260.2 816.721C1260.39 816.933 1260.58 817.146 1260.77 817.36C1260.93 817.54 1261.09 817.721 1261.25 817.902C1261.43 818.114 1261.62 818.325 1261.8 818.538C1261.98 818.747 1262.16 818.957 1262.33 819.168C1262.49 819.358 1262.66 819.549 1262.81 819.74C1262.99 819.957 1263.17 820.176 1263.35 820.395C1263.5 820.588 1263.66 820.781 1263.81 820.976C1263.97 821.172 1264.12 821.369 1264.28 821.566C1264.44 821.775 1264.6 821.983 1264.76 822.192C1264.93 822.403 1265.08 822.614 1265.24 822.826C1265.41 823.051 1265.58 823.276 1265.75 823.502C1265.9 823.702 1266.04 823.904 1266.19 824.105C1266.34 824.322 1266.5 824.538 1266.65 824.756C1266.78 824.935 1266.91 825.115 1267.03 825.295C1267.07 825.348 1267.11 825.401 1267.15 825.454C1267.17 825.484 1267.19 825.514 1267.21 825.544C1267.32 825.711 1267.44 825.878 1267.55 826.046C1267.7 826.27 1267.86 826.495 1268.01 826.721C1268.15 826.938 1268.3 827.155 1268.44 827.373C1268.58 827.596 1268.73 827.82 1268.87 828.044C1269.01 828.266 1269.16 828.488 1269.3 828.712C1269.44 828.94 1269.58 829.169 1269.72 829.398C1269.85 829.607 1269.98 829.816 1270.11 830.026C1270.26 830.271 1270.4 830.516 1270.55 830.762C1270.67 830.972 1270.79 831.182 1270.92 831.393C1271.06 831.635 1271.2 831.878 1271.33 832.122C1271.45 832.334 1271.57 832.546 1271.69 832.76C1271.83 833.008 1271.97 833.258 1272.1 833.508C1272.22 833.735 1272.35 833.962 1272.47 834.189C1272.59 834.418 1272.71 834.648 1272.83 834.878C1272.94 835.101 1273.06 835.323 1273.17 835.547C1273.31 835.809 1273.44 836.073 1273.57 836.337C1273.67 836.547 1273.78 836.757 1273.88 836.969C1274 837.215 1274.12 837.462 1274.23 837.709C1274.35 837.956 1274.47 838.203 1274.58 838.451C1274.68 838.661 1274.77 838.873 1274.87 839.084C1274.99 839.353 1275.11 839.622 1275.23 839.893C1275.28 840.016 1275.34 840.138 1275.39 840.262L1275.75 841.096L1275.75 841.097C1275.78 841.177 1275.82 841.258 1275.85 841.338C1275.88 841.422 1275.92 841.505 1275.96 841.589C1276.02 841.737 1276.08 841.887 1276.14 842.035C1276.24 842.282 1276.34 842.528 1276.44 842.775C1276.53 843.01 1276.62 843.246 1276.71 843.481C1276.82 843.753 1276.92 844.024 1277.02 844.296C1277.11 844.529 1277.2 844.763 1277.28 844.997C1277.37 845.244 1277.46 845.492 1277.55 845.74C1277.64 846.001 1277.73 846.263 1277.82 846.525C1277.91 846.78 1278 847.035 1278.08 847.29C1278.16 847.513 1278.23 847.736 1278.3 847.96C1278.39 848.243 1278.49 848.526 1278.57 848.81C1278.65 849.05 1278.72 849.291 1278.8 849.532C1278.87 849.773 1278.94 850.014 1279.01 850.255C1279.09 850.519 1279.17 850.784 1279.24 851.049C1279.31 851.3 1279.38 851.552 1279.45 851.805C1279.52 852.057 1279.59 852.309 1279.65 852.562C1279.72 852.824 1279.79 853.087 1279.86 853.351C1279.92 853.6 1279.98 853.85 1280.05 854.1C1280.11 854.364 1280.17 854.628 1280.24 854.893C1280.3 855.153 1280.36 855.413 1280.41 855.674C1280.47 855.924 1280.53 856.174 1280.58 856.425C1280.63 856.666 1280.68 856.907 1280.73 857.148C1280.77 857.34 1280.81 857.53 1280.85 857.722C1280.87 857.828 1280.89 857.935 1280.91 858.041C1280.96 858.27 1281 858.5 1281.04 858.729C1281.09 858.989 1281.14 859.249 1281.18 859.509C1281.23 859.768 1281.27 860.027 1281.32 860.286C1281.36 860.55 1281.41 860.813 1281.45 861.077C1281.49 861.334 1281.53 861.591 1281.56 861.848C1281.61 862.123 1281.65 862.399 1281.68 862.675C1281.72 862.928 1281.75 863.181 1281.79 863.434C1281.82 863.719 1281.86 864.004 1281.89 864.289C1281.92 864.496 1281.94 864.703 1281.96 864.91C1282 865.24 1282.04 865.57 1282.07 865.899C1282.09 866.099 1282.11 866.3 1282.13 866.5C1282.16 866.807 1282.18 867.114 1282.21 867.422C1282.23 867.65 1282.24 867.878 1282.26 868.106C1282.28 868.407 1282.31 868.707 1282.33 869.007C1282.34 869.246 1282.35 869.485 1282.37 869.724C1282.38 870.005 1282.4 870.285 1282.41 870.566C1282.42 870.801 1282.43 871.035 1282.44 871.27C1282.45 871.565 1282.46 871.861 1282.47 872.157C1282.47 872.312 1282.48 872.466 1282.48 872.621C1282.48 872.736 1282.49 872.852 1282.49 872.967C1282.49 873.018 1282.49 873.07 1282.49 873.122C1282.49 873.248 1282.5 873.374 1282.5 873.5H1282.5V874.5C1282.5 874.567 1282.5 874.633 1282.5 874.7C1282.5 874.905 1282.5 875.109 1282.5 875.313C1282.5 875.494 1282.49 875.675 1282.49 875.856C1282.49 875.999 1282.49 876.142 1282.48 876.285C1282.48 876.492 1282.47 876.698 1282.47 876.904C1282.46 877.082 1282.46 877.259 1282.45 877.437C1282.45 877.583 1282.44 877.729 1282.43 877.875C1282.43 878.076 1282.42 878.277 1282.41 878.478C1282.4 878.67 1282.39 878.863 1282.38 879.056C1282.37 879.183 1282.37 879.311 1282.36 879.438C1282.35 879.545 1282.35 879.651 1282.34 879.758C1282.34 879.852 1282.33 879.947 1282.32 880.041C1282.31 880.229 1282.3 880.417 1282.28 880.605C1282.27 880.744 1282.26 880.882 1282.25 881.02C1282.24 881.205 1282.23 881.391 1282.21 881.577C1282.19 881.799 1282.17 882.02 1282.15 882.241C1282.14 882.351 1282.13 882.461 1282.12 882.57C1282.1 882.793 1282.08 883.016 1282.06 883.238C1282.04 883.391 1282.02 883.544 1282.01 883.696C1281.99 883.869 1281.97 884.042 1281.95 884.215C1281.93 884.387 1281.91 884.56 1281.89 884.732C1281.86 884.966 1281.83 885.199 1281.8 885.433C1281.79 885.527 1281.78 885.621 1281.77 885.716C1281.74 885.907 1281.72 886.098 1281.69 886.289C1281.66 886.508 1281.63 886.726 1281.59 886.944C1281.57 887.082 1281.56 887.22 1281.53 887.358C1281.51 887.538 1281.48 887.718 1281.45 887.897C1281.42 888.073 1281.39 888.248 1281.37 888.423C1281.34 888.574 1281.32 888.725 1281.29 888.876C1281.26 889.066 1281.23 889.256 1281.19 889.446C1281.16 889.648 1281.12 889.85 1281.08 890.052C1281.06 890.187 1281.03 890.323 1281.01 890.458C1280.98 890.601 1280.95 890.745 1280.93 890.888C1280.92 890.937 1280.91 890.985 1280.9 891.034C1280.88 891.115 1280.87 891.197 1280.85 891.278C1280.83 891.367 1280.81 891.455 1280.79 891.544C1280.76 891.704 1280.73 891.864 1280.7 892.023C1280.66 892.197 1280.62 892.37 1280.59 892.543C1280.54 892.741 1280.5 892.939 1280.46 893.137C1280.43 893.273 1280.4 893.408 1280.37 893.544C1280.32 893.726 1280.28 893.908 1280.24 894.09C1280.19 894.287 1280.15 894.483 1280.1 894.68C1280.07 894.822 1280.03 894.965 1280 895.107C1279.95 895.294 1279.9 895.481 1279.86 895.667C1279.81 895.841 1279.77 896.014 1279.72 896.188C1279.69 896.315 1279.65 896.443 1279.62 896.57C1279.57 896.778 1279.51 896.985 1279.45 897.192C1279.4 897.376 1279.35 897.559 1279.3 897.742C1279.27 897.861 1279.23 897.981 1279.2 898.1C1279.14 898.312 1279.08 898.524 1279.01 898.736C1278.96 898.906 1278.92 899.076 1278.86 899.245C1278.83 899.361 1278.79 899.476 1278.76 899.591C1278.75 899.634 1278.73 899.677 1278.72 899.72C1278.72 899.73 1278.71 899.739 1278.71 899.749C1278.67 899.898 1278.62 900.047 1278.57 900.196C1278.51 900.396 1278.45 900.596 1278.38 900.795C1278.35 900.899 1278.32 901.002 1278.28 901.105C1278.21 901.318 1278.14 901.53 1278.07 901.742C1278.01 901.922 1277.95 902.103 1277.89 902.282C1277.85 902.405 1277.81 902.527 1277.76 902.649C1277.7 902.843 1277.63 903.037 1277.56 903.23C1277.5 903.397 1277.44 903.564 1277.38 903.73C1277.33 903.875 1277.28 904.02 1277.22 904.164C1277.16 904.338 1277.09 904.511 1277.03 904.685C1276.98 904.809 1276.94 904.933 1276.89 905.057L1276.9 905.06L1276.58 905.854C1276.54 905.973 1276.49 906.09 1276.44 906.208C1276.38 906.375 1276.31 906.542 1276.24 906.709C1276.18 906.854 1276.12 907 1276.06 907.145C1276.03 907.233 1275.99 907.323 1275.96 907.411C1275.95 907.427 1275.94 907.442 1275.94 907.457C1275.94 907.459 1275.94 907.462 1275.93 907.464C1275.93 907.473 1275.93 907.483 1275.92 907.492C1275.89 907.578 1275.85 907.662 1275.81 907.747C1275.76 907.868 1275.71 907.988 1275.66 908.108C1275.6 908.241 1275.55 908.373 1275.49 908.505C1275.48 908.524 1275.48 908.543 1275.47 908.562C1275.45 908.607 1275.43 908.653 1275.41 908.697C1275.38 908.757 1275.36 908.818 1275.33 908.878C1275.29 908.976 1275.25 909.074 1275.2 909.172C1275.14 909.304 1275.09 909.435 1275.03 909.566C1274.97 909.699 1274.91 909.831 1274.85 909.963C1274.75 910.175 1274.66 910.387 1274.56 910.599C1274.49 910.75 1274.42 910.902 1274.35 911.053C1274.28 911.191 1274.22 911.329 1274.15 911.467C1274.06 911.656 1273.97 911.845 1273.88 912.033C1273.81 912.169 1273.75 912.306 1273.68 912.441C1273.62 912.561 1273.56 912.681 1273.5 912.801C1273.49 912.824 1273.48 912.847 1273.47 912.87C1273.46 912.891 1273.45 912.912 1273.43 912.933C1273.39 913.019 1273.35 913.107 1273.31 913.193L1273.17 913.454C1273.11 913.578 1273.05 913.702 1272.98 913.826C1272.91 913.975 1272.83 914.123 1272.75 914.271C1272.69 914.381 1272.64 914.493 1272.58 914.604C1272.54 914.689 1272.49 914.774 1272.44 914.859C1272.38 914.984 1272.31 915.108 1272.24 915.232C1272.17 915.374 1272.09 915.515 1272.01 915.655C1271.95 915.769 1271.89 915.884 1271.83 915.998C1271.79 916.077 1271.74 916.155 1271.7 916.233C1271.63 916.359 1271.56 916.485 1271.49 916.61C1271.41 916.751 1271.33 916.892 1271.25 917.032C1271.14 917.225 1271.03 917.418 1270.92 917.609C1270.83 917.752 1270.75 917.893 1270.67 918.035C1270.59 918.163 1270.52 918.29 1270.44 918.417C1270.33 918.603 1270.22 918.788 1270.11 918.973C1270.02 919.116 1269.93 919.258 1269.85 919.4C1269.77 919.534 1269.68 919.668 1269.6 919.801C1269.5 919.962 1269.4 920.123 1269.3 920.283C1269.21 920.423 1269.13 920.561 1269.04 920.7C1268.98 920.793 1268.92 920.887 1268.86 920.98C1268.86 920.986 1268.85 920.992 1268.85 920.997C1268.81 921.059 1268.77 921.12 1268.73 921.182C1268.71 921.216 1268.68 921.25 1268.66 921.284C1268.59 921.395 1268.52 921.506 1268.45 921.616C1268.35 921.762 1268.25 921.907 1268.16 922.052C1268.11 922.127 1268.06 922.204 1268.01 922.279C1267.97 922.336 1267.93 922.39 1267.89 922.446C1267.77 922.629 1267.65 922.811 1267.52 922.993C1267.45 923.109 1267.37 923.224 1267.29 923.339C1267.2 923.471 1267.1 923.602 1267.01 923.733C1266.99 923.77 1266.96 923.807 1266.94 923.843C1266.88 923.92 1266.83 923.998 1266.78 924.075C1266.72 924.161 1266.66 924.245 1266.59 924.329C1266.51 924.447 1266.43 924.563 1266.34 924.681C1266.25 924.813 1266.15 924.945 1266.06 925.076C1265.94 925.239 1265.82 925.401 1265.7 925.563C1265.62 925.677 1265.53 925.789 1265.45 925.902C1265.34 926.053 1265.22 926.203 1265.11 926.353C1265.1 926.364 1265.09 926.375 1265.08 926.387C1264.99 926.513 1264.89 926.64 1264.8 926.766C1264.69 926.902 1264.59 927.038 1264.48 927.174C1264.38 927.308 1264.27 927.442 1264.17 927.576C1264.15 927.598 1264.13 927.62 1264.12 927.642C1264.1 927.661 1264.09 927.68 1264.07 927.699C1264.07 927.702 1264.07 927.705 1264.06 927.708C1263.98 927.813 1263.9 927.919 1263.82 928.023C1263.72 928.143 1263.62 928.262 1263.53 928.381L1263.46 928.467C1263.36 928.59 1263.26 928.714 1263.16 928.837C1263.1 928.91 1263.04 928.985 1262.98 929.059C1262.93 929.126 1262.87 929.192 1262.81 929.259C1262.7 929.392 1262.59 929.524 1262.48 929.657C1262.39 929.769 1262.29 929.88 1262.2 929.991C1262.17 930.027 1262.14 930.063 1262.11 930.099C1262.11 930.104 1262.1 930.108 1262.1 930.113C1262.06 930.164 1262.01 930.218 1261.97 930.269C1261.92 930.333 1261.86 930.396 1261.8 930.461C1261.68 930.6 1261.56 930.738 1261.44 930.876C1261.34 931.001 1261.23 931.125 1261.12 931.249C1261.11 931.261 1261.1 931.273 1261.09 931.285C1261.03 931.354 1260.97 931.425 1260.91 931.494C1260.82 931.589 1260.74 931.683 1260.65 931.777C1260.6 931.833 1260.55 931.887 1260.5 931.942C1260.5 931.944 1260.5 931.947 1260.5 931.948C1260.45 932.007 1260.39 932.065 1260.34 932.124C1260.25 932.218 1260.17 932.313 1260.08 932.406C1259.94 932.571 1259.78 932.733 1259.63 932.896C1259.55 932.984 1259.47 933.07 1259.39 933.157C1259.27 933.289 1259.14 933.421 1259.02 933.553C1259.01 933.565 1259 933.578 1258.99 933.59C1258.97 933.606 1258.95 933.623 1258.94 933.64C1258.82 933.76 1258.71 933.879 1258.59 933.999C1258.49 934.109 1258.38 934.219 1258.28 934.328C1258.24 934.362 1258.21 934.395 1258.18 934.429C1258.1 934.512 1258.02 934.595 1257.94 934.678C1257.92 934.697 1257.9 934.717 1257.88 934.736C1257.87 934.752 1257.85 934.767 1257.83 934.782C1257.74 934.882 1257.64 934.982 1257.54 935.082C1257.46 935.158 1257.39 935.236 1257.31 935.312L1256.61 936.019L1256.6 936.014C1256.49 936.121 1256.38 936.227 1256.27 936.334C1256.23 936.372 1256.19 936.412 1256.15 936.45C1256.09 936.507 1256.03 936.563 1255.97 936.62C1255.88 936.71 1255.78 936.801 1255.69 936.891C1255.65 936.927 1255.61 936.964 1255.58 937C1255.57 937.011 1255.55 937.021 1255.54 937.031C1255.45 937.12 1255.35 937.208 1255.26 937.296C1255.22 937.329 1255.19 937.363 1255.15 937.396C1255.08 937.463 1255.01 937.529 1254.94 937.595C1254.79 937.727 1254.65 937.859 1254.51 937.99C1254.49 938.005 1254.48 938.021 1254.46 938.035C1254.39 938.101 1254.32 938.167 1254.25 938.232C1254.11 938.353 1253.98 938.472 1253.84 938.592C1253.68 938.738 1253.51 938.885 1253.35 939.03C1253.32 939.053 1253.3 939.076 1253.27 939.099C1253.26 939.114 1253.24 939.128 1253.22 939.143C1253.03 939.309 1252.84 939.474 1252.65 939.64C1252.48 939.788 1252.3 939.937 1252.13 940.084C1252.11 940.106 1252.08 940.128 1252.05 940.149C1252.05 940.156 1252.04 940.162 1252.03 940.169C1251.99 940.206 1251.94 940.245 1251.9 940.282C1251.78 940.379 1251.67 940.473 1251.55 940.569C1251.34 940.742 1251.14 940.915 1250.93 941.085C1250.9 941.107 1250.88 941.13 1250.85 941.152C1250.78 941.21 1250.71 941.269 1250.64 941.326C1250.48 941.449 1250.33 941.57 1250.18 941.692C1250.13 941.729 1250.09 941.765 1250.04 941.802C1249.93 941.888 1249.82 941.974 1249.71 942.06C1249.68 942.087 1249.65 942.115 1249.61 942.143C1249.59 942.158 1249.57 942.174 1249.55 942.189C1249.4 942.307 1249.25 942.422 1249.1 942.538C1249.04 942.581 1248.99 942.624 1248.93 942.667C1248.91 942.681 1248.89 942.696 1248.88 942.71C1248.73 942.819 1248.59 942.929 1248.45 943.037C1248.41 943.067 1248.37 943.098 1248.33 943.127C1248.32 943.134 1248.31 943.141 1248.3 943.148C1248.17 943.246 1248.04 943.342 1247.91 943.438C1247.83 943.499 1247.75 943.56 1247.67 943.62C1247.64 943.645 1247.6 943.67 1247.57 943.695C1247.42 943.806 1247.27 943.917 1247.12 944.027C1246.93 944.159 1246.75 944.289 1246.57 944.42C1246.51 944.462 1246.45 944.506 1246.39 944.548C1246.36 944.57 1246.33 944.591 1246.3 944.613C1246.15 944.717 1246.01 944.821 1245.86 944.924C1245.83 944.941 1245.81 944.96 1245.78 944.978C1245.71 945.033 1245.63 945.09 1245.55 945.145C1245.4 945.249 1245.25 945.35 1245.1 945.453C1245.07 945.475 1245.03 945.495 1245 945.517C1244.85 945.621 1244.7 945.725 1244.54 945.828C1244.52 945.846 1244.49 945.863 1244.47 945.881C1244.45 945.889 1244.44 945.896 1244.43 945.904C1244.38 945.938 1244.33 945.973 1244.28 946.007C1244.18 946.073 1244.08 946.137 1243.98 946.203C1243.92 946.246 1243.85 946.29 1243.79 946.333C1243.76 946.347 1243.74 946.36 1243.72 946.374C1243.57 946.474 1243.42 946.574 1243.27 946.673C1243.22 946.7 1243.18 946.728 1243.14 946.755C1243.11 946.774 1243.08 946.792 1243.05 946.812C1242.96 946.869 1242.87 946.926 1242.79 946.982C1242.68 947.051 1242.57 947.121 1242.46 947.189C1242.41 947.22 1242.36 947.249 1242.32 947.279C1242.2 947.35 1242.09 947.422 1241.98 947.492C1241.91 947.531 1241.85 947.571 1241.79 947.609C1241.76 947.629 1241.73 947.647 1241.7 947.666C1241.6 947.727 1241.5 947.786 1241.4 947.847C1241.31 947.904 1241.21 947.963 1241.12 948.021C1241.07 948.049 1241.02 948.078 1240.97 948.106C1240.84 948.185 1240.71 948.264 1240.58 948.342C1240.55 948.364 1240.51 948.387 1240.47 948.409C1240.45 948.424 1240.42 948.438 1240.4 948.452C1240.2 948.572 1239.99 948.69 1239.79 948.808C1239.61 948.914 1239.43 949.021 1239.24 949.126C1239.2 949.151 1239.16 949.176 1239.11 949.201C1239.08 949.218 1239.05 949.233 1239.03 949.249C1238.97 949.279 1238.92 949.312 1238.87 949.343C1238.74 949.414 1238.61 949.482 1238.48 949.553C1238.46 949.564 1238.44 949.577 1238.42 949.589C1238.24 949.692 1238.05 949.795 1237.87 949.896C1237.82 949.925 1237.77 949.954 1237.71 949.982C1237.67 950.009 1237.62 950.034 1237.57 950.061C1237.49 950.104 1237.41 950.147 1237.33 950.19C1237.2 950.256 1237.08 950.323 1236.96 950.389C1236.93 950.403 1236.9 950.417 1236.88 950.432C1236.72 950.514 1236.56 950.597 1236.41 950.679C1236.38 950.694 1236.35 950.71 1236.32 950.725C1236.3 950.738 1236.27 950.75 1236.25 950.764C1236.09 950.847 1235.93 950.929 1235.77 951.011C1235.7 951.045 1235.63 951.08 1235.57 951.114C1235.53 951.13 1235.5 951.146 1235.47 951.162C1235.34 951.229 1235.21 951.296 1235.08 951.362C1235.01 951.396 1234.94 951.432 1234.87 951.466C1234.83 951.489 1234.78 951.511 1234.73 951.534C1234.71 951.545 1234.69 951.558 1234.67 951.569C1234.58 951.61 1234.5 951.647 1234.42 951.687C1234.35 951.723 1234.27 951.761 1234.2 951.798C1234.17 951.81 1234.15 951.821 1234.12 951.833C1233.95 951.918 1233.77 952.003 1233.6 952.087C1233.55 952.111 1233.5 952.136 1233.45 952.16C1233.41 952.176 1233.38 952.191 1233.35 952.207C1233.31 952.223 1233.28 952.241 1233.24 952.258C1233.16 952.299 1233.07 952.338 1232.98 952.379C1232.91 952.413 1232.83 952.448 1232.76 952.482C1232.7 952.51 1232.64 952.537 1232.58 952.564C1232.47 952.617 1232.35 952.67 1232.24 952.723C1232.16 952.758 1232.08 952.796 1232 952.831C1231.91 952.871 1231.83 952.912 1231.74 952.951L1231.74 952.957L1230.83 953.355C1230.73 953.395 1230.64 953.434 1230.55 953.474C1230.52 953.484 1230.5 953.494 1230.48 953.504C1230.35 953.557 1230.23 953.61 1230.1 953.662C1230.04 953.69 1229.97 953.718 1229.91 953.746C1229.82 953.783 1229.73 953.819 1229.64 953.855C1229.57 953.887 1229.49 953.922 1229.41 953.954C1229.37 953.971 1229.33 953.985 1229.29 954.001C1229.23 954.029 1229.16 954.059 1229.09 954.087C1229.06 954.099 1229.03 954.11 1229 954.122C1228.9 954.165 1228.79 954.206 1228.68 954.249C1228.6 954.284 1228.51 954.32 1228.42 954.355C1228.24 954.427 1228.06 954.503 1227.88 954.573C1227.81 954.603 1227.73 954.631 1227.65 954.661C1227.59 954.684 1227.53 954.707 1227.47 954.729C1227.43 954.746 1227.39 954.763 1227.34 954.779C1227.17 954.846 1226.99 954.913 1226.82 954.979C1226.68 955.032 1226.54 955.087 1226.4 955.139C1226.32 955.167 1226.24 955.194 1226.16 955.223C1226.08 955.253 1226 955.286 1225.92 955.316C1225.72 955.389 1225.52 955.457 1225.32 955.528C1225.28 955.542 1225.24 955.554 1225.21 955.567C1225.08 955.61 1224.96 955.653 1224.84 955.695C1224.8 955.71 1224.76 955.726 1224.72 955.74C1224.67 955.756 1224.63 955.77 1224.58 955.785C1224.45 955.831 1224.32 955.876 1224.18 955.921C1224.05 955.966 1223.92 956.013 1223.78 956.058C1223.7 956.086 1223.61 956.114 1223.53 956.143C1223.49 956.154 1223.46 956.165 1223.43 956.176C1223.36 956.198 1223.29 956.221 1223.23 956.243C1223.17 956.263 1223.11 956.281 1223.05 956.3C1222.94 956.336 1222.82 956.371 1222.71 956.407C1222.57 956.453 1222.42 956.5 1222.27 956.546C1222.26 956.549 1222.26 956.552 1222.25 956.555C1222.12 956.594 1222 956.634 1221.87 956.673C1221.82 956.689 1221.76 956.706 1221.71 956.723C1221.62 956.752 1221.52 956.783 1221.43 956.812C1221.23 956.87 1221.04 956.924 1220.85 956.981L1220.38 957.122C1220.29 957.147 1220.2 957.17 1220.12 957.194C1220.08 957.206 1220.04 957.217 1220 957.229C1219.92 957.249 1219.85 957.267 1219.78 957.287C1219.65 957.325 1219.51 957.364 1219.37 957.401C1219.29 957.425 1219.2 957.449 1219.11 957.473C1219.01 957.5 1218.91 957.528 1218.81 957.555C1218.76 957.57 1218.7 957.587 1218.64 957.603C1218.59 957.617 1218.53 957.63 1218.48 957.644C1218.43 957.657 1218.38 957.67 1218.33 957.684C1218.15 957.73 1217.97 957.778 1217.79 957.824C1217.71 957.845 1217.63 957.864 1217.54 957.885C1217.44 957.911 1217.34 957.937 1217.23 957.963C1217.19 957.973 1217.15 957.984 1217.11 957.994C1217.07 958.003 1217.04 958.011 1217 958.021C1216.92 958.04 1216.84 958.06 1216.76 958.079C1216.67 958.101 1216.58 958.124 1216.49 958.146C1216.39 958.168 1216.3 958.189 1216.21 958.211L1215.77 958.313C1215.7 958.328 1215.64 958.344 1215.58 958.358C1215.54 958.368 1215.49 958.376 1215.45 958.386C1215.35 958.409 1215.24 958.431 1215.14 958.454C1214.99 958.486 1214.85 958.519 1214.7 958.551C1214.61 958.571 1214.52 958.59 1214.43 958.609C1214.35 958.626 1214.27 958.643 1214.2 958.659C1214.13 958.673 1214.07 958.687 1214.01 958.7C1213.93 958.716 1213.85 958.734 1213.78 958.75C1213.57 958.793 1213.35 958.832 1213.14 958.874C1213.05 958.892 1212.96 958.909 1212.86 958.928C1212.8 958.94 1212.74 958.953 1212.68 958.965C1212.61 958.977 1212.55 958.989 1212.49 959.001C1212.4 959.018 1212.32 959.036 1212.23 959.053C1212.02 959.091 1211.81 959.126 1211.6 959.163C1211.53 959.176 1211.45 959.189 1211.38 959.202C1211.28 959.22 1211.17 959.239 1211.07 959.257C1211.03 959.264 1210.99 959.272 1210.94 959.279C1210.9 959.287 1210.85 959.295 1210.8 959.303C1210.7 959.32 1210.6 959.335 1210.49 959.352C1210.36 959.374 1210.22 959.397 1210.08 959.419C1210.02 959.43 1209.95 959.44 1209.88 959.451C1209.75 959.471 1209.63 959.491 1209.5 959.511C1209.45 959.519 1209.4 959.528 1209.34 959.536C1209.31 959.541 1209.27 959.546 1209.24 959.551C1209.13 959.567 1209.03 959.58 1208.92 959.596C1208.79 959.615 1208.66 959.635 1208.52 959.654C1208.45 959.665 1208.37 959.674 1208.3 959.685C1208.19 959.7 1208.07 959.716 1207.96 959.731C1207.91 959.738 1207.86 959.746 1207.81 959.753C1207.78 959.757 1207.74 959.761 1207.71 959.766C1207.57 959.784 1207.43 959.801 1207.28 959.819C1207.16 959.834 1207.04 959.85 1206.92 959.865C1206.82 959.877 1206.72 959.888 1206.62 959.9C1206.57 959.907 1206.51 959.915 1206.45 959.922C1206.36 959.933 1206.27 959.945 1206.18 959.955C1206.14 959.96 1206.09 959.963 1206.05 959.968C1206 959.974 1205.94 959.979 1205.88 959.985C1205.72 960.004 1205.55 960.022 1205.38 960.04C1205.27 960.051 1205.16 960.062 1205.05 960.073C1204.99 960.079 1204.94 960.084 1204.88 960.09C1204.81 960.097 1204.74 960.105 1204.67 960.111C1204.58 960.12 1204.48 960.132 1204.39 960.141C1204.16 960.162 1203.93 960.178 1203.7 960.197C1203.62 960.204 1203.53 960.21 1203.45 960.218C1203.4 960.221 1203.36 960.226 1203.31 960.229C1203.26 960.234 1203.2 960.24 1203.14 960.244C1203.08 960.249 1203.03 960.252 1202.97 960.256C1202.86 960.264 1202.75 960.271 1202.65 960.278C1202.5 960.288 1202.36 960.3 1202.22 960.31C1202.06 960.32 1201.9 960.332 1201.74 960.342C1201.65 960.347 1201.56 960.351 1201.47 960.356C1201.44 960.358 1201.41 960.36 1201.37 960.361C1201.29 960.366 1201.2 960.37 1201.12 960.375C1201 960.381 1200.88 960.389 1200.76 960.395C1200.6 960.403 1200.43 960.408 1200.27 960.416C1200.24 960.417 1200.21 960.42 1200.18 960.421C1200.1 960.424 1200.02 960.429 1199.94 960.432C1199.84 960.436 1199.73 960.442 1199.63 960.445C1199.44 960.452 1199.25 960.455 1199.06 960.461C1198.95 960.464 1198.83 960.467 1198.71 960.471C1198.67 960.472 1198.63 960.473 1198.6 960.474C1198.52 960.476 1198.44 960.479 1198.37 960.48C1198.26 960.483 1198.15 960.486 1198.04 960.488C1197.84 960.492 1197.65 960.492 1197.45 960.494C1197.35 960.495 1197.24 960.495 1197.14 960.496C1197.09 960.496 1197.05 960.497 1197.01 960.497C1196.92 960.498 1196.83 960.5 1196.75 960.5C1196.65 960.5 1196.54 960.502 1196.44 960.502C1196.37 960.502 1196.31 960.501 1196.24 960.5H1195.5V960.495C1195.48 960.495 1195.45 960.495 1195.43 960.495C1195.33 960.494 1195.24 960.491 1195.14 960.489C1195.1 960.489 1195.05 960.486 1195 960.485V958.482C1195.07 958.484 1195.14 958.486 1195.2 958.487C1195.3 958.489 1195.4 958.489 1195.5 958.49V885.452C1195.83 885.482 1196.17 885.5 1196.5 885.5C1196.84 885.5 1197.17 885.482 1197.5 885.452V958.49C1198.02 958.484 1198.54 958.473 1199.06 958.457C1201.05 958.396 1203.04 958.265 1205.02 958.063C1205.57 958.007 1206.12 957.946 1206.67 957.879C1208.73 957.628 1210.77 957.301 1212.8 956.899C1213.3 956.8 1213.81 956.696 1214.31 956.587C1215.28 956.375 1216.26 956.146 1217.22 955.9C1218.92 955.469 1220.59 954.985 1222.26 954.449C1222.55 954.353 1222.85 954.256 1223.15 954.156C1223.35 954.09 1223.55 954.022 1223.74 953.954C1224.05 953.849 1224.36 953.742 1224.67 953.633C1225.33 953.397 1225.99 953.152 1226.65 952.899C1226.88 952.809 1227.12 952.718 1227.35 952.625C1227.38 952.612 1227.42 952.599 1227.45 952.586C1227.68 952.496 1227.9 952.404 1228.13 952.312C1228.38 952.211 1228.63 952.11 1228.88 952.006C1228.89 951.999 1228.91 951.993 1228.92 951.986C1228.98 951.961 1229.04 951.936 1229.1 951.91L1199.96 884.944C1200.59 884.733 1201.21 884.465 1201.79 884.146L1230.94 951.111C1237.8 948.029 1244.18 944.056 1249.93 939.316C1250.23 939.068 1250.53 938.817 1250.83 938.563C1250.96 938.454 1251.09 938.343 1251.21 938.232C1252.54 937.095 1253.83 935.915 1255.08 934.696C1255.12 934.663 1255.15 934.63 1255.18 934.597L1203.54 882.952C1204.05 882.524 1204.53 882.051 1204.96 881.538L1256.6 933.182C1256.71 933.064 1256.83 932.946 1256.94 932.828C1261.37 928.237 1265.25 923.18 1268.5 917.761C1268.52 917.729 1268.54 917.697 1268.56 917.665C1268.67 917.481 1268.78 917.296 1268.89 917.111C1268.99 916.933 1269.1 916.754 1269.2 916.575C1269.29 916.416 1269.39 916.256 1269.48 916.096C1269.56 915.949 1269.64 915.802 1269.72 915.655C1269.78 915.563 1269.83 915.471 1269.88 915.379C1270.02 915.121 1270.17 914.863 1270.31 914.604C1270.4 914.428 1270.5 914.252 1270.59 914.076C1270.98 913.353 1271.35 912.624 1271.72 911.889C1271.81 911.708 1271.9 911.527 1271.98 911.346C1272.15 911.008 1272.31 910.67 1272.47 910.33C1272.56 910.155 1272.64 909.979 1272.72 909.804C1272.89 909.428 1273.06 909.051 1273.23 908.672C1273.27 908.585 1273.31 908.497 1273.35 908.409C1273.67 907.689 1273.98 906.965 1274.27 906.234C1274.28 906.218 1274.29 906.201 1274.29 906.185L1206.33 879.442C1206.63 878.851 1206.87 878.229 1207.06 877.582L1275.02 904.322C1275.05 904.246 1275.08 904.169 1275.11 904.093C1275.23 903.78 1275.35 903.467 1275.46 903.153C1275.54 902.922 1275.63 902.69 1275.71 902.458C1275.78 902.247 1275.86 902.035 1275.93 901.823C1276.01 901.584 1276.09 901.345 1276.17 901.105C1276.41 900.404 1276.63 899.699 1276.85 898.991C1276.92 898.766 1276.98 898.54 1277.05 898.314C1277.12 898.071 1277.19 897.828 1277.26 897.584C1277.47 896.847 1277.67 896.107 1277.87 895.364C1277.95 895.031 1278.03 894.697 1278.12 894.363C1278.26 893.764 1278.4 893.164 1278.53 892.562C1278.61 892.223 1278.68 891.884 1278.75 891.544C1278.9 890.813 1279.04 890.079 1279.18 889.344C1279.21 889.134 1279.25 888.924 1279.29 888.714C1280.03 884.374 1280.44 879.965 1280.49 875.526C1280.49 875.518 1280.49 875.509 1280.49 875.5H1207.46C1207.49 875.171 1207.5 874.837 1207.5 874.5C1207.5 874.163 1207.49 873.829 1207.46 873.5H1280.49C1280.49 873.424 1280.49 873.347 1280.49 873.271C1280.49 873.033 1280.48 872.794 1280.48 872.557C1280.23 861.965 1277.99 851.57 1273.91 841.898L1206.95 871.046C1206.73 870.406 1206.47 869.793 1206.15 869.211L1273.11 840.064C1272.89 839.568 1272.66 839.074 1272.43 838.582C1271.8 837.255 1271.14 835.947 1270.45 834.658C1269.74 833.339 1268.99 832.038 1268.21 830.755C1268.18 830.712 1268.15 830.668 1268.13 830.625C1267.93 830.303 1267.73 829.982 1267.53 829.662C1267.52 829.657 1267.52 829.651 1267.52 829.646C1267.17 829.089 1266.81 828.537 1266.44 827.988C1266.16 827.563 1265.87 827.141 1265.58 826.721C1265.58 826.71 1265.57 826.699 1265.56 826.688C1265.32 826.338 1265.07 825.99 1264.83 825.644C1263.68 824.048 1262.49 822.491 1261.23 820.976C1259.91 819.371 1258.52 817.819 1257.08 816.322C1257 816.239 1256.92 816.155 1256.84 816.071C1256.76 815.987 1256.68 815.903 1256.6 815.819L1204.95 867.461C1204.53 866.948 1204.05 866.474 1203.54 866.047L1255.18 814.404C1247.44 806.849 1238.29 800.825 1228.18 796.71L1201.44 864.672C1200.85 864.374 1200.23 864.128 1199.58 863.939L1226.32 795.978C1217.25 792.531 1207.69 790.7 1198.07 790.519C1197.88 790.515 1197.69 790.515 1197.5 790.513V863.547C1197.17 863.517 1196.84 863.5 1196.5 863.5C1196.17 863.5 1195.83 863.517 1195.5 863.547V790.512C1195.36 790.513 1195.23 790.513 1195.09 790.516C1194.45 790.526 1193.82 790.546 1193.18 790.571C1191.57 790.635 1189.95 790.745 1188.34 790.902C1188.29 790.907 1188.24 790.911 1188.18 790.916C1187.76 790.958 1187.33 791.005 1186.91 791.054C1186.88 791.057 1186.85 791.06 1186.82 791.063C1186.42 791.11 1186.02 791.16 1185.63 791.212C1184.65 791.34 1183.67 791.484 1182.7 791.646C1176.27 792.718 1169.96 794.537 1163.9 797.091L1193.05 864.056C1192.41 864.267 1191.79 864.535 1191.21 864.854L1162.06 797.89C1153.11 801.914 1144.9 807.491 1137.82 814.401L1189.46 866.047C1188.95 866.475 1188.48 866.948 1188.05 867.461L1136.41 815.816C1136.4 815.821 1136.4 815.826 1136.39 815.831C1133.28 819.016 1130.45 822.43 1127.9 826.035C1127.81 826.165 1127.72 826.295 1127.62 826.425C1127.1 827.179 1126.59 827.942 1126.08 828.712C1126.04 828.778 1126 828.844 1125.96 828.91C1125.51 829.596 1125.08 830.289 1124.66 830.987C1124.52 831.213 1124.38 831.439 1124.25 831.666C1123.92 832.218 1123.6 832.773 1123.29 833.332C1123.04 833.767 1122.8 834.203 1122.57 834.642C1122.53 834.714 1122.49 834.787 1122.45 834.86C1122.06 835.594 1121.67 836.334 1121.3 837.079C1121.21 837.273 1121.11 837.467 1121.02 837.661C1120.64 838.422 1120.28 839.189 1119.94 839.961C1119.91 840.014 1119.89 840.068 1119.86 840.122C1119.86 840.141 1119.85 840.16 1119.84 840.179C1119.63 840.656 1119.42 841.136 1119.21 841.617C1119.16 841.728 1119.12 841.839 1119.07 841.95C1118.95 842.239 1118.83 842.528 1118.71 842.818L1186.67 869.561C1186.38 870.152 1186.13 870.774 1185.94 871.421L1117.98 844.68C1117.97 844.709 1117.96 844.738 1117.94 844.767C1117.81 845.134 1117.67 845.502 1117.54 845.871C1116.98 847.416 1116.46 848.979 1115.99 850.559C1115.9 850.865 1115.81 851.171 1115.72 851.479C1113.69 858.609 1112.6 866.012 1112.51 873.5H1185.55C1185.52 873.829 1185.5 874.163 1185.5 874.5C1185.5 874.837 1185.52 875.171 1185.55 875.5H1112.51C1112.51 875.667 1112.52 875.833 1112.52 876H1110.52C1110.52 875.952 1110.52 875.904 1110.52 875.856C1110.51 875.738 1110.51 875.619 1110.51 875.5H1110.5V874.5C1110.5 874.405 1110.5 874.31 1110.5 874.215C1110.51 874.126 1110.5 874.036 1110.5 873.947C1110.5 873.891 1110.51 873.835 1110.51 873.779C1110.51 873.739 1110.51 873.699 1110.51 873.659C1110.51 873.616 1110.51 873.573 1110.51 873.53C1110.51 873.425 1110.51 873.319 1110.51 873.214C1110.52 873.018 1110.52 872.823 1110.52 872.627C1110.53 872.47 1110.53 872.314 1110.54 872.157C1110.54 872.121 1110.54 872.086 1110.54 872.05C1110.54 872.033 1110.54 872.016 1110.54 871.999C1110.54 871.865 1110.55 871.731 1110.55 871.598C1110.56 871.408 1110.57 871.219 1110.57 871.029C1110.58 870.875 1110.59 870.721 1110.59 870.566C1110.6 870.377 1110.61 870.188 1110.62 869.999C1110.63 869.84 1110.64 869.681 1110.65 869.521C1110.66 869.322 1110.67 869.122 1110.68 868.922C1110.69 868.767 1110.71 868.613 1110.72 868.458C1110.73 868.285 1110.74 868.112 1110.75 867.939C1110.77 867.757 1110.78 867.575 1110.8 867.394C1110.81 867.206 1110.83 867.018 1110.85 866.83C1110.86 866.678 1110.87 866.527 1110.89 866.375C1110.91 866.163 1110.93 865.951 1110.95 865.739C1110.97 865.602 1110.98 865.464 1111 865.326C1111.01 865.144 1111.03 864.961 1111.05 864.779C1111.08 864.584 1111.1 864.388 1111.12 864.192C1111.15 864.013 1111.17 863.833 1111.19 863.653C1111.21 863.514 1111.23 863.375 1111.25 863.235C1111.27 863.048 1111.29 862.862 1111.32 862.675C1111.35 862.489 1111.37 862.302 1111.4 862.116C1111.42 861.958 1111.45 861.799 1111.47 861.641C1111.5 861.453 1111.53 861.265 1111.56 861.077C1111.58 860.91 1111.61 860.742 1111.64 860.575C1111.66 860.419 1111.69 860.262 1111.72 860.105C1111.73 860.008 1111.75 859.909 1111.76 859.812C1111.77 859.8 1111.77 859.788 1111.77 859.776L1111.83 859.47C1111.85 859.319 1111.88 859.168 1111.91 859.017C1111.94 858.848 1111.97 858.68 1112 858.512C1112.04 858.333 1112.07 858.154 1112.11 857.976C1112.12 857.891 1112.14 857.806 1112.16 857.722C1112.17 857.638 1112.19 857.554 1112.21 857.471C1112.24 857.293 1112.28 857.114 1112.32 856.937C1112.35 856.766 1112.39 856.595 1112.42 856.425C1112.46 856.254 1112.5 856.083 1112.54 855.912C1112.58 855.741 1112.61 855.57 1112.65 855.398C1112.69 855.225 1112.73 855.052 1112.77 854.879C1112.81 854.707 1112.85 854.534 1112.89 854.362C1112.93 854.205 1112.97 854.048 1113.01 853.892C1113.06 853.689 1113.11 853.487 1113.16 853.285C1113.2 853.137 1113.24 852.989 1113.28 852.842C1113.32 852.68 1113.36 852.519 1113.4 852.357C1113.43 852.274 1113.45 852.189 1113.47 852.105C1113.5 852.005 1113.53 851.905 1113.55 851.805C1113.6 851.634 1113.65 851.463 1113.69 851.293C1113.74 851.144 1113.78 850.996 1113.82 850.848C1113.88 850.65 1113.93 850.452 1113.99 850.255C1114.04 850.088 1114.09 849.921 1114.14 849.754C1114.18 849.612 1114.23 849.47 1114.27 849.328C1114.32 849.156 1114.38 848.984 1114.43 848.812C1114.49 848.61 1114.56 848.407 1114.62 848.205C1114.66 848.081 1114.7 847.958 1114.74 847.834C1114.81 847.639 1114.87 847.444 1114.94 847.249C1114.99 847.087 1115.04 846.925 1115.1 846.763C1115.15 846.613 1115.2 846.463 1115.25 846.313C1115.32 846.122 1115.39 845.931 1115.46 845.74C1115.51 845.586 1115.56 845.431 1115.62 845.277C1115.68 845.11 1115.74 844.944 1115.8 844.777C1115.86 844.617 1115.92 844.456 1115.98 844.296C1116.05 844.125 1116.11 843.954 1116.18 843.783C1116.24 843.626 1116.3 843.47 1116.36 843.313C1116.41 843.187 1116.46 843.06 1116.5 842.934L1116.84 842.083L1116.84 842.084C1116.88 842.005 1116.91 841.926 1116.94 841.847C1116.98 841.761 1117.01 841.675 1117.05 841.589C1117.09 841.479 1117.14 841.37 1117.19 841.261C1117.24 841.144 1117.29 841.027 1117.33 840.91C1117.4 840.75 1117.47 840.59 1117.54 840.43C1117.59 840.327 1117.63 840.224 1117.67 840.122C1117.72 840.004 1117.78 839.887 1117.83 839.769C1117.87 839.669 1117.92 839.57 1117.96 839.471C1118.04 839.291 1118.12 839.112 1118.2 838.933C1118.28 838.755 1118.36 838.578 1118.45 838.401C1118.51 838.253 1118.58 838.105 1118.65 837.957C1118.72 837.815 1118.79 837.674 1118.85 837.532C1118.95 837.334 1119.04 837.135 1119.14 836.938C1119.2 836.818 1119.26 836.698 1119.32 836.578C1119.4 836.414 1119.48 836.251 1119.56 836.088C1119.61 835.994 1119.65 835.9 1119.7 835.807C1119.74 835.72 1119.79 835.634 1119.83 835.547C1119.9 835.418 1119.96 835.29 1120.03 835.162C1120.11 835.001 1120.19 834.84 1120.28 834.68C1120.38 834.494 1120.47 834.309 1120.57 834.124C1120.63 834.005 1120.7 833.886 1120.76 833.768C1120.85 833.608 1120.93 833.448 1121.02 833.289C1121.13 833.091 1121.24 832.893 1121.35 832.695C1121.4 832.605 1121.45 832.515 1121.5 832.425C1121.6 832.249 1121.7 832.074 1121.8 831.899C1121.9 831.715 1122.01 831.532 1122.11 831.349C1122.18 831.228 1122.25 831.108 1122.32 830.987C1122.42 830.832 1122.51 830.677 1122.6 830.521C1122.71 830.344 1122.81 830.166 1122.92 829.989C1122.98 829.88 1123.05 829.771 1123.12 829.662C1123.21 829.507 1123.31 829.353 1123.4 829.198C1123.52 829.016 1123.63 828.833 1123.74 828.651C1123.81 828.545 1123.88 828.438 1123.95 828.332C1124.05 828.165 1124.16 827.999 1124.27 827.832C1124.38 827.66 1124.49 827.488 1124.6 827.317C1124.67 827.212 1124.74 827.107 1124.81 827.002C1124.87 826.908 1124.93 826.814 1125 826.721C1125.04 826.65 1125.09 826.581 1125.14 826.511C1125.26 826.333 1125.38 826.155 1125.5 825.978C1125.56 825.893 1125.62 825.809 1125.67 825.726C1125.79 825.552 1125.91 825.378 1126.03 825.205C1126.16 825.031 1126.28 824.858 1126.4 824.685C1126.46 824.596 1126.53 824.507 1126.59 824.418C1126.71 824.253 1126.83 824.087 1126.95 823.923C1127.08 823.747 1127.2 823.572 1127.33 823.397C1127.4 823.311 1127.46 823.226 1127.53 823.14C1127.65 822.967 1127.78 822.794 1127.91 822.622C1128.02 822.478 1128.13 822.335 1128.24 822.192C1128.33 822.081 1128.41 821.969 1128.5 821.858C1128.62 821.694 1128.75 821.531 1128.88 821.368C1129 821.216 1129.12 821.064 1129.24 820.912C1129.32 820.816 1129.39 820.721 1129.47 820.625C1129.59 820.47 1129.72 820.316 1129.84 820.162C1129.9 820.089 1129.96 820.015 1130.02 819.941C1130.1 819.845 1130.18 819.751 1130.26 819.655C1130.33 819.578 1130.39 819.5 1130.45 819.423C1130.59 819.264 1130.72 819.106 1130.85 818.948C1130.91 818.876 1130.97 818.803 1131.04 818.731C1131.11 818.649 1131.18 818.567 1131.25 818.484C1131.34 818.382 1131.43 818.28 1131.51 818.178C1131.64 818.029 1131.77 817.88 1131.9 817.732C1132.04 817.578 1132.17 817.424 1132.31 817.271C1132.39 817.182 1132.47 817.095 1132.55 817.007C1132.67 816.867 1132.8 816.727 1132.93 816.588C1133.09 816.413 1133.25 816.239 1133.41 816.065C1133.47 816.001 1133.53 815.936 1133.59 815.872C1133.75 815.701 1133.9 815.53 1134.07 815.36C1134.09 815.338 1134.11 815.315 1134.13 815.293C1134.19 815.223 1134.26 815.154 1134.33 815.084C1134.36 815.05 1134.39 815.016 1134.43 814.981C1134.53 814.879 1134.62 814.776 1134.72 814.674C1134.86 814.528 1135.01 814.384 1135.15 814.239C1135.26 814.122 1135.38 814.005 1135.49 813.889C1135.56 813.822 1135.63 813.755 1135.69 813.688L1136.4 812.981L1136.4 812.984C1136.56 812.831 1136.72 812.68 1136.88 812.527C1137.04 812.372 1137.2 812.216 1137.36 812.062C1137.57 811.866 1137.78 811.673 1137.99 811.479C1138.19 811.293 1138.39 811.107 1138.59 810.923C1138.75 810.781 1138.9 810.641 1139.06 810.5C1139.28 810.299 1139.51 810.097 1139.74 809.898C1139.92 809.74 1140.1 809.583 1140.28 809.426C1140.5 809.233 1140.73 809.041 1140.95 808.851C1141.12 808.71 1141.29 808.569 1141.45 808.43C1141.69 808.233 1141.93 808.036 1142.17 807.842C1142.35 807.694 1142.53 807.548 1142.71 807.402C1142.93 807.226 1143.15 807.051 1143.37 806.877C1143.59 806.702 1143.82 806.53 1144.04 806.357C1144.24 806.208 1144.43 806.058 1144.62 805.91C1144.82 805.763 1145.02 805.617 1145.21 805.472C1145.45 805.295 1145.69 805.119 1145.93 804.945C1146.11 804.809 1146.3 804.675 1146.49 804.541C1146.73 804.37 1146.97 804.2 1147.21 804.031C1147.4 803.895 1147.6 803.76 1147.8 803.625C1148.03 803.461 1148.27 803.297 1148.51 803.136C1148.58 803.089 1148.65 803.04 1148.72 802.993C1148.87 802.897 1149.01 802.804 1149.16 802.709C1149.39 802.559 1149.61 802.408 1149.84 802.26C1150.04 802.132 1150.24 802.006 1150.44 801.88C1150.69 801.719 1150.95 801.559 1151.2 801.4C1151.22 801.387 1151.24 801.373 1151.27 801.359C1151.38 801.291 1151.49 801.225 1151.6 801.157C1151.65 801.123 1151.71 801.09 1151.76 801.057C1152.02 800.902 1152.27 800.749 1152.52 800.597C1152.76 800.459 1152.99 800.324 1153.22 800.188C1153.43 800.063 1153.65 799.938 1153.87 799.814C1153.96 799.762 1154.05 799.709 1154.14 799.657C1154.29 799.574 1154.44 799.494 1154.58 799.411C1154.82 799.279 1155.06 799.146 1155.3 799.016C1155.5 798.904 1155.71 798.793 1155.92 798.683C1156.17 798.546 1156.43 798.41 1156.68 798.275C1156.91 798.157 1157.14 798.04 1157.37 797.924C1157.61 797.801 1157.85 797.678 1158.09 797.557C1158.17 797.515 1158.26 797.472 1158.34 797.431C1158.47 797.366 1158.6 797.303 1158.73 797.239C1159 797.109 1159.27 796.979 1159.54 796.852C1159.76 796.745 1159.98 796.642 1160.21 796.537C1160.45 796.424 1160.69 796.312 1160.94 796.201C1161.04 796.152 1161.15 796.101 1161.26 796.052V796.047L1161.94 795.752C1162.1 795.68 1162.27 795.609 1162.43 795.538C1162.5 795.507 1162.57 795.475 1162.65 795.444C1162.79 795.381 1162.94 795.322 1163.09 795.26C1163.26 795.189 1163.42 795.116 1163.59 795.046C1163.68 795.01 1163.76 794.977 1163.85 794.941C1164.1 794.839 1164.35 794.738 1164.6 794.638C1164.84 794.543 1165.08 794.448 1165.32 794.355C1165.57 794.255 1165.83 794.157 1166.09 794.06C1166.32 793.973 1166.55 793.886 1166.78 793.801C1166.87 793.768 1166.96 793.733 1167.05 793.7C1167.21 793.64 1167.38 793.583 1167.55 793.523C1167.8 793.432 1168.06 793.34 1168.32 793.251C1168.56 793.168 1168.8 793.088 1169.04 793.007C1169.29 792.921 1169.54 792.836 1169.8 792.753C1170.04 792.675 1170.27 792.6 1170.51 792.524C1170.79 792.438 1171.06 792.351 1171.33 792.268C1171.55 792.202 1171.76 792.138 1171.98 792.073C1172.27 791.987 1172.56 791.901 1172.85 791.817C1173.08 791.751 1173.32 791.687 1173.55 791.623C1173.82 791.548 1174.09 791.473 1174.36 791.4C1174.59 791.34 1174.81 791.282 1175.04 791.224C1175.32 791.15 1175.61 791.076 1175.89 791.006C1176.14 790.946 1176.38 790.888 1176.63 790.83C1176.89 790.769 1177.14 790.708 1177.4 790.649C1177.63 790.597 1177.87 790.545 1178.1 790.494C1178.14 790.485 1178.18 790.476 1178.22 790.467C1178.25 790.461 1178.28 790.454 1178.31 790.448C1178.52 790.403 1178.73 790.357 1178.94 790.313C1179.02 790.297 1179.1 790.278 1179.18 790.262C1179.36 790.225 1179.55 790.19 1179.73 790.154C1179.99 790.102 1180.25 790.05 1180.51 790C1180.74 789.957 1180.97 789.917 1181.19 789.876C1181.5 789.821 1181.8 789.766 1182.11 789.714C1182.32 789.679 1182.52 789.646 1182.73 789.612C1183.04 789.563 1183.34 789.514 1183.64 789.468C1183.86 789.435 1184.08 789.404 1184.3 789.373C1184.6 789.33 1184.9 789.286 1185.2 789.246C1185.46 789.212 1185.72 789.181 1185.97 789.149C1186.23 789.118 1186.48 789.087 1186.73 789.059C1187.01 789.027 1187.28 788.998 1187.56 788.969C1187.8 788.944 1188.04 788.918 1188.28 788.895C1188.56 788.868 1188.83 788.844 1189.11 788.82C1189.37 788.798 1189.63 788.775 1189.89 788.755C1190.13 788.737 1190.37 788.72 1190.6 788.704C1190.9 788.684 1191.2 788.664 1191.49 788.646C1191.75 788.631 1192.01 788.619 1192.27 788.606C1192.52 788.594 1192.78 788.582 1193.03 788.571C1193.32 788.56 1193.6 788.552 1193.88 788.543C1194.13 788.535 1194.38 788.527 1194.63 788.521C1194.9 788.516 1195.18 788.512 1195.45 788.509C1195.71 788.506 1195.96 788.503 1196.22 788.502C1196.31 788.502 1196.41 788.5 1196.5 788.5H1197.5V788.505Z" fill="#EE3124"/>
<circle cx="1196.5" cy="874.5" r="10" stroke="#EE3124" stroke-width="2"/>
<line y1="-1" x2="90" y2="-1" transform="matrix(-0.5 -0.866025 -0.866025 0.5 871.5 1003.44)" stroke="#EE3124" stroke-width="2"/>
<path d="M403.5 299.5L397.332 316.49" stroke="#EE3124" stroke-width="2" stroke-linecap="round"/>
<path d="M424.346 306.39L418.822 323.6" stroke="#EE3124" stroke-width="2" stroke-linecap="round"/>
<path d="M447.5 314.5L441.332 331.49" stroke="#EE3124" stroke-width="2" stroke-linecap="round"/>
<path d="M469.21 321.717L461.958 338.273" stroke="#EE3124" stroke-width="2" stroke-linecap="round"/>
<path d="M513.883 336.171L508.369 353.385" stroke="#EE3124" stroke-width="2" stroke-linecap="round"/>
<path d="M492.5 329.619L486.291 346.595" stroke="#EE3124" stroke-width="2" stroke-linecap="round"/>
<line x1="1453.5" y1="628.5" x2="1453.5" y2="1.5" stroke="#EE3124" stroke-width="2"/>
<path d="M1540 807.5C1561.28 807.5 1578.5 824.525 1578.5 845.5C1578.5 866.475 1561.28 883.5 1540 883.5C1518.72 883.5 1501.5 866.475 1501.5 845.5C1501.5 824.525 1518.72 807.5 1540 807.5Z" stroke="#EE3124" stroke-width="2"/>
<rect x="1535.5" y="839.5" width="34" height="12" rx="6" stroke="#EE3124" stroke-width="2"/>
<path d="M1538.3 819.912C1549.6 820.198 1559.08 827.821 1562.15 838.196H1560.06C1557 828.741 1548.12 821.903 1537.64 821.903C1524.63 821.904 1514.08 832.453 1514.08 845.466C1514.08 858.479 1524.63 869.028 1537.64 869.028C1548.09 869.028 1556.95 862.229 1560.03 852.815H1562.13C1558.97 863.351 1549.2 871.028 1537.64 871.028L1536.98 871.02C1523.39 870.675 1512.43 859.719 1512.09 846.125L1512.08 845.466C1512.08 831.348 1523.52 819.904 1537.64 819.903L1538.3 819.912Z" fill="#EE3124"/>
<line x1="1332.5" y1="947.5" x2="1603.5" y2="947.5" stroke="#EE3124" stroke-width="2"/>
<path d="M1394.5 902.5C1394.5 885.379 1408.38 871.5 1425.5 871.5V871.5C1442.62 871.5 1456.5 885.379 1456.5 902.5V947.5H1394.5V902.5Z" stroke="#EE3124" stroke-width="2"/>
<rect x="1394.5" y="940.5" width="62" height="7" stroke="#EE3124" stroke-width="2"/>
<rect x="1486.5" y="940.5" width="20" height="7" stroke="#EE3124" stroke-width="2"/>
<path d="M1425.5 882.5C1438.22 882.5 1448.5 892.593 1448.5 905C1448.5 917.407 1438.22 927.5 1425.5 927.5C1412.78 927.5 1402.5 917.407 1402.5 905C1402.5 892.593 1412.78 882.5 1425.5 882.5Z" stroke="#EE3124" stroke-width="2"/>
</svg>
