<svg width="1603" height="1003" viewBox="0 0 1603 1003" fill="none" xmlns="http://www.w3.org/2000/svg">
<path d="M1602.5 1002.5H501.5C224.805 1002.5 0.5 778.195 0.5 501.5C0.5 224.805 224.805 0.5 501.5 0.5H1602.5V1002.5ZM501.5 2.5C225.91 2.5 2.5 225.91 2.5 501.5C2.5 777.09 225.91 1000.5 501.5 1000.5H1600.5V2.5H501.5Z" fill="#EE3124"/>
<path fill-rule="evenodd" clip-rule="evenodd" d="M860.779 154.674C947.882 244.506 1001.5 366.991 1001.5 502C1001.5 777.59 778.09 1001 502.5 1001H498V1003H502.5C779.195 1003 1003.5 778.695 1003.5 502C1003.5 366.379 949.612 243.346 862.08 153.142L860.779 154.674ZM498 3H502.5C600.833 3 692.523 31.444 769.791 80.5518L771.098 79.0127C693.47 29.6162 601.327 1 502.5 1H498V3Z" fill="#EE3124"/>
<path fill-rule="evenodd" clip-rule="evenodd" d="M1602.5 1002.5H0.5V0.5H1602.5V1002.5ZM2.5 1000.5H1600.5V2.5H2.5V1000.5Z" fill="#EE3124"/>
<path d="M1198 788.505C1198.11 788.506 1198.22 788.51 1198.33 788.512C1198.58 788.516 1198.83 788.521 1199.07 788.527C1199.35 788.534 1199.63 788.54 1199.9 788.55C1200.17 788.559 1200.43 788.571 1200.7 788.582C1200.95 788.593 1201.2 788.604 1201.46 788.617C1201.76 788.633 1202.05 788.65 1202.35 788.669C1202.57 788.682 1202.78 788.695 1203 788.71C1203.33 788.734 1203.67 788.761 1204.01 788.788C1204.19 788.803 1204.37 788.817 1204.55 788.833C1204.88 788.862 1205.2 788.893 1205.53 788.926C1205.75 788.947 1205.97 788.97 1206.18 788.993C1206.47 789.024 1206.75 789.057 1207.04 789.09C1207.28 789.119 1207.53 789.148 1207.77 789.179C1208.07 789.216 1208.36 789.255 1208.65 789.295C1208.88 789.326 1209.1 789.356 1209.33 789.389C1209.61 789.43 1209.89 789.474 1210.18 789.518C1210.43 789.556 1210.67 789.594 1210.92 789.635C1211.21 789.682 1211.49 789.731 1211.78 789.781C1212 789.82 1212.23 789.859 1212.45 789.9C1212.75 789.954 1213.04 790.011 1213.33 790.067C1213.48 790.096 1213.63 790.123 1213.78 790.152C1213.86 790.168 1213.94 790.186 1214.02 790.202C1214.31 790.261 1214.61 790.322 1214.9 790.385C1215.12 790.433 1215.35 790.481 1215.57 790.53C1215.85 790.592 1216.13 790.657 1216.41 790.722C1216.66 790.778 1216.9 790.834 1217.14 790.893C1217.4 790.954 1217.65 791.018 1217.9 791.081C1218.17 791.148 1218.44 791.215 1218.7 791.284C1218.95 791.348 1219.19 791.415 1219.44 791.481C1219.69 791.55 1219.94 791.617 1220.2 791.688C1220.46 791.762 1220.73 791.84 1221 791.917C1221.24 791.988 1221.48 792.059 1221.73 792.132C1222 792.214 1222.27 792.298 1222.54 792.383C1222.76 792.452 1222.99 792.521 1223.21 792.592C1223.48 792.679 1223.75 792.769 1224.03 792.859C1224.26 792.938 1224.5 793.015 1224.74 793.096C1224.97 793.176 1225.21 793.259 1225.44 793.342C1225.71 793.437 1225.98 793.531 1226.25 793.629C1226.48 793.711 1226.71 793.794 1226.93 793.878C1227.14 793.956 1227.35 794.032 1227.56 794.111L1227.56 794.107L1228.72 794.564C1228.81 794.599 1228.9 794.634 1228.99 794.669L1229.42 794.84L1229.42 794.843C1229.61 794.923 1229.81 795.006 1230 795.087C1230.2 795.17 1230.4 795.253 1230.6 795.337C1230.88 795.455 1231.16 795.577 1231.44 795.698C1231.65 795.79 1231.86 795.881 1232.07 795.975C1232.31 796.085 1232.56 796.197 1232.8 796.31C1233.05 796.421 1233.29 796.531 1233.53 796.645C1233.77 796.755 1234 796.869 1234.24 796.981C1234.48 797.097 1234.72 797.213 1234.96 797.331C1235.17 797.436 1235.38 797.542 1235.6 797.648C1235.86 797.782 1236.13 797.916 1236.39 798.053C1236.58 798.151 1236.77 798.252 1236.97 798.353C1237.25 798.501 1237.53 798.649 1237.81 798.801C1237.99 798.897 1238.17 798.996 1238.35 799.094C1238.63 799.247 1238.91 799.401 1239.19 799.558C1239.37 799.662 1239.55 799.768 1239.74 799.873C1240.01 800.03 1240.29 800.187 1240.56 800.347C1240.75 800.46 1240.94 800.574 1241.13 800.688C1241.39 800.841 1241.64 800.994 1241.89 801.148C1242.1 801.272 1242.3 801.397 1242.5 801.522C1242.75 801.681 1243 801.839 1243.26 802C1243.44 802.116 1243.62 802.234 1243.8 802.352C1244.07 802.524 1244.33 802.697 1244.6 802.873C1244.66 802.914 1244.72 802.953 1244.78 802.994C1244.89 803.068 1245 803.144 1245.11 803.219C1245.38 803.401 1245.65 803.584 1245.92 803.77C1246.09 803.889 1246.26 804.009 1246.44 804.13C1246.68 804.302 1246.93 804.475 1247.17 804.65C1247.38 804.799 1247.58 804.949 1247.79 805.1C1248.01 805.262 1248.23 805.424 1248.45 805.588C1248.65 805.737 1248.85 805.888 1249.05 806.039C1249.27 806.21 1249.5 806.382 1249.72 806.556C1249.91 806.704 1250.1 806.854 1250.29 807.004C1250.52 807.182 1250.74 807.36 1250.97 807.54C1251.16 807.694 1251.35 807.849 1251.54 808.005C1251.75 808.176 1251.95 808.348 1252.16 808.521C1252.36 808.691 1252.57 808.861 1252.77 809.032C1252.98 809.211 1253.18 809.39 1253.39 809.57C1253.58 809.729 1253.76 809.889 1253.94 810.049C1254.15 810.239 1254.37 810.429 1254.58 810.621C1254.75 810.778 1254.93 810.937 1255.1 811.096C1255.33 811.303 1255.55 811.511 1255.78 811.722C1255.93 811.86 1256.07 811.999 1256.22 812.138C1256.46 812.367 1256.7 812.597 1256.94 812.83C1256.99 812.882 1257.05 812.933 1257.1 812.985L1257.11 812.981L1257.81 813.688C1257.88 813.755 1257.94 813.822 1258.01 813.889C1258.18 814.058 1258.35 814.228 1258.51 814.398C1258.73 814.619 1258.94 814.84 1259.16 815.063C1259.3 815.217 1259.45 815.372 1259.59 815.527C1259.74 815.679 1259.88 815.829 1260.02 815.981C1260.09 816.052 1260.15 816.124 1260.22 816.194C1260.38 816.369 1260.54 816.545 1260.7 816.721C1260.89 816.933 1261.08 817.146 1261.27 817.36C1261.43 817.54 1261.59 817.721 1261.75 817.902C1261.93 818.114 1262.12 818.325 1262.3 818.538C1262.48 818.747 1262.66 818.957 1262.83 819.168C1262.99 819.358 1263.16 819.549 1263.31 819.74C1263.49 819.957 1263.67 820.176 1263.85 820.395C1264 820.588 1264.16 820.781 1264.31 820.976C1264.47 821.172 1264.62 821.369 1264.78 821.566C1264.94 821.775 1265.1 821.983 1265.26 822.192C1265.43 822.403 1265.58 822.614 1265.74 822.826C1265.91 823.051 1266.08 823.276 1266.25 823.502C1266.4 823.702 1266.54 823.904 1266.69 824.105C1266.84 824.322 1267 824.538 1267.15 824.756C1267.28 824.935 1267.41 825.115 1267.53 825.295C1267.57 825.348 1267.61 825.401 1267.65 825.454C1267.67 825.484 1267.69 825.514 1267.71 825.544C1267.82 825.711 1267.94 825.878 1268.05 826.046C1268.2 826.27 1268.36 826.495 1268.51 826.721C1268.65 826.938 1268.8 827.155 1268.94 827.373C1269.08 827.596 1269.23 827.82 1269.37 828.044C1269.51 828.266 1269.66 828.488 1269.8 828.712C1269.94 828.94 1270.08 829.169 1270.22 829.398C1270.35 829.607 1270.48 829.816 1270.61 830.026C1270.76 830.271 1270.9 830.516 1271.05 830.762C1271.17 830.972 1271.29 831.182 1271.42 831.393C1271.56 831.635 1271.7 831.878 1271.83 832.122C1271.95 832.334 1272.07 832.546 1272.19 832.76C1272.33 833.008 1272.47 833.258 1272.6 833.508C1272.72 833.735 1272.85 833.962 1272.97 834.189C1273.09 834.418 1273.21 834.648 1273.33 834.878C1273.44 835.101 1273.56 835.323 1273.67 835.547C1273.81 835.809 1273.94 836.073 1274.07 836.337C1274.17 836.547 1274.28 836.757 1274.38 836.969C1274.5 837.215 1274.62 837.462 1274.73 837.709C1274.85 837.956 1274.97 838.203 1275.08 838.451C1275.18 838.661 1275.27 838.873 1275.37 839.084C1275.49 839.353 1275.61 839.622 1275.73 839.893C1275.78 840.016 1275.84 840.138 1275.89 840.262L1276.25 841.096L1276.25 841.097C1276.28 841.177 1276.32 841.258 1276.35 841.338C1276.38 841.422 1276.42 841.505 1276.46 841.589C1276.52 841.737 1276.58 841.887 1276.64 842.035C1276.74 842.282 1276.84 842.528 1276.94 842.775C1277.03 843.01 1277.12 843.246 1277.21 843.481C1277.32 843.753 1277.42 844.024 1277.52 844.296C1277.61 844.529 1277.7 844.763 1277.78 844.997C1277.87 845.244 1277.96 845.492 1278.05 845.74C1278.14 846.001 1278.23 846.263 1278.32 846.525C1278.41 846.78 1278.5 847.035 1278.58 847.29C1278.66 847.513 1278.73 847.736 1278.8 847.96C1278.89 848.243 1278.99 848.526 1279.07 848.81C1279.15 849.05 1279.22 849.291 1279.3 849.532C1279.37 849.773 1279.44 850.014 1279.51 850.255C1279.59 850.519 1279.67 850.784 1279.74 851.049C1279.81 851.3 1279.88 851.552 1279.95 851.805C1280.02 852.057 1280.09 852.309 1280.15 852.562C1280.22 852.824 1280.29 853.087 1280.36 853.351C1280.42 853.6 1280.48 853.85 1280.55 854.1C1280.61 854.364 1280.67 854.628 1280.74 854.893C1280.8 855.153 1280.86 855.413 1280.91 855.674C1280.97 855.924 1281.03 856.174 1281.08 856.425C1281.13 856.666 1281.18 856.907 1281.23 857.148C1281.27 857.34 1281.31 857.53 1281.35 857.722C1281.37 857.828 1281.39 857.935 1281.41 858.041C1281.46 858.27 1281.5 858.5 1281.54 858.729C1281.59 858.989 1281.64 859.249 1281.68 859.509C1281.73 859.768 1281.77 860.027 1281.82 860.286C1281.86 860.55 1281.91 860.813 1281.95 861.077C1281.99 861.334 1282.03 861.591 1282.06 861.848C1282.11 862.123 1282.15 862.399 1282.18 862.675C1282.22 862.928 1282.25 863.181 1282.29 863.434C1282.32 863.719 1282.36 864.004 1282.39 864.289C1282.42 864.496 1282.44 864.703 1282.46 864.91C1282.5 865.24 1282.54 865.57 1282.57 865.899C1282.59 866.099 1282.61 866.3 1282.63 866.5C1282.66 866.807 1282.68 867.114 1282.71 867.422C1282.73 867.65 1282.74 867.878 1282.76 868.106C1282.78 868.407 1282.81 868.707 1282.83 869.007C1282.84 869.246 1282.85 869.485 1282.87 869.724C1282.88 870.005 1282.9 870.285 1282.91 870.566C1282.92 870.801 1282.93 871.035 1282.94 871.27C1282.95 871.565 1282.96 871.861 1282.97 872.157C1282.97 872.312 1282.98 872.466 1282.98 872.621C1282.98 872.736 1282.99 872.852 1282.99 872.967C1282.99 873.018 1282.99 873.07 1282.99 873.122C1282.99 873.248 1283 873.374 1283 873.5H1283V874.5C1283 874.567 1283 874.633 1283 874.7C1283 874.905 1283 875.109 1283 875.313C1283 875.494 1282.99 875.675 1282.99 875.856C1282.99 875.999 1282.99 876.142 1282.98 876.285C1282.98 876.492 1282.97 876.698 1282.97 876.904C1282.96 877.082 1282.96 877.259 1282.95 877.437C1282.95 877.583 1282.94 877.729 1282.93 877.875C1282.93 878.076 1282.92 878.277 1282.91 878.478C1282.9 878.67 1282.89 878.863 1282.88 879.056C1282.87 879.183 1282.87 879.311 1282.86 879.438C1282.85 879.545 1282.85 879.651 1282.84 879.758C1282.84 879.852 1282.83 879.947 1282.82 880.041C1282.81 880.229 1282.8 880.417 1282.78 880.605C1282.77 880.744 1282.76 880.882 1282.75 881.02C1282.74 881.205 1282.73 881.391 1282.71 881.577C1282.69 881.799 1282.67 882.02 1282.65 882.241C1282.64 882.351 1282.63 882.461 1282.62 882.57C1282.6 882.793 1282.58 883.016 1282.56 883.238C1282.54 883.391 1282.52 883.544 1282.51 883.696C1282.49 883.869 1282.47 884.042 1282.45 884.215C1282.43 884.387 1282.41 884.56 1282.39 884.732C1282.36 884.966 1282.33 885.199 1282.3 885.433C1282.29 885.527 1282.28 885.621 1282.27 885.716C1282.24 885.907 1282.22 886.098 1282.19 886.289C1282.16 886.508 1282.13 886.726 1282.09 886.944C1282.07 887.082 1282.06 887.22 1282.03 887.358C1282.01 887.538 1281.98 887.718 1281.95 887.897C1281.92 888.073 1281.89 888.248 1281.87 888.423C1281.84 888.574 1281.82 888.725 1281.79 888.876C1281.76 889.066 1281.73 889.256 1281.69 889.446C1281.66 889.648 1281.62 889.85 1281.58 890.052C1281.56 890.187 1281.53 890.323 1281.51 890.458C1281.48 890.601 1281.45 890.745 1281.43 890.888C1281.42 890.937 1281.41 890.985 1281.4 891.034C1281.38 891.115 1281.37 891.197 1281.35 891.278C1281.33 891.367 1281.31 891.455 1281.29 891.544C1281.26 891.704 1281.23 891.864 1281.2 892.023C1281.16 892.197 1281.12 892.37 1281.09 892.543C1281.04 892.741 1281 892.939 1280.96 893.137C1280.93 893.273 1280.9 893.408 1280.87 893.544C1280.82 893.726 1280.78 893.908 1280.74 894.09C1280.69 894.287 1280.65 894.483 1280.6 894.68C1280.57 894.822 1280.53 894.965 1280.5 895.107C1280.45 895.294 1280.4 895.481 1280.36 895.667C1280.31 895.841 1280.27 896.014 1280.22 896.188C1280.19 896.315 1280.15 896.443 1280.12 896.57C1280.07 896.778 1280.01 896.985 1279.95 897.192C1279.9 897.376 1279.85 897.559 1279.8 897.742C1279.77 897.861 1279.73 897.981 1279.7 898.1C1279.64 898.312 1279.58 898.524 1279.51 898.736C1279.46 898.906 1279.42 899.076 1279.36 899.245C1279.33 899.361 1279.29 899.476 1279.26 899.591C1279.25 899.634 1279.23 899.677 1279.22 899.72C1279.22 899.73 1279.21 899.739 1279.21 899.749C1279.17 899.898 1279.12 900.047 1279.07 900.196C1279.01 900.396 1278.95 900.596 1278.88 900.795C1278.85 900.899 1278.82 901.002 1278.78 901.105C1278.71 901.318 1278.64 901.53 1278.57 901.742C1278.51 901.922 1278.45 902.103 1278.39 902.282C1278.35 902.405 1278.31 902.527 1278.26 902.649C1278.2 902.843 1278.13 903.037 1278.06 903.23C1278 903.397 1277.94 903.564 1277.88 903.73C1277.83 903.875 1277.78 904.02 1277.72 904.164C1277.66 904.338 1277.59 904.511 1277.53 904.685C1277.48 904.809 1277.44 904.933 1277.39 905.057L1277.4 905.06L1277.08 905.854C1277.04 905.973 1276.99 906.09 1276.94 906.208C1276.88 906.375 1276.81 906.542 1276.74 906.709C1276.68 906.854 1276.62 907 1276.56 907.145C1276.53 907.233 1276.49 907.323 1276.46 907.411C1276.45 907.427 1276.44 907.442 1276.44 907.457C1276.44 907.459 1276.44 907.462 1276.43 907.464C1276.43 907.473 1276.43 907.483 1276.42 907.492C1276.39 907.578 1276.35 907.662 1276.31 907.747C1276.26 907.868 1276.21 907.988 1276.16 908.108C1276.1 908.241 1276.05 908.373 1275.99 908.505C1275.98 908.524 1275.98 908.543 1275.97 908.562C1275.95 908.607 1275.93 908.653 1275.91 908.697C1275.88 908.757 1275.86 908.818 1275.83 908.878C1275.79 908.976 1275.75 909.074 1275.7 909.172C1275.64 909.304 1275.59 909.435 1275.53 909.566C1275.47 909.699 1275.41 909.831 1275.35 909.963C1275.25 910.175 1275.16 910.387 1275.06 910.599C1274.99 910.75 1274.92 910.902 1274.85 911.053C1274.78 911.191 1274.72 911.329 1274.65 911.467C1274.56 911.656 1274.47 911.845 1274.38 912.033C1274.31 912.169 1274.25 912.306 1274.18 912.441C1274.12 912.561 1274.06 912.681 1274 912.801C1273.99 912.824 1273.98 912.847 1273.97 912.87C1273.96 912.891 1273.95 912.912 1273.93 912.933C1273.89 913.019 1273.85 913.107 1273.81 913.193L1273.67 913.454C1273.61 913.578 1273.55 913.702 1273.48 913.826C1273.41 913.975 1273.33 914.123 1273.25 914.271C1273.19 914.381 1273.14 914.493 1273.08 914.604C1273.04 914.689 1272.99 914.774 1272.94 914.859C1272.88 914.984 1272.81 915.108 1272.74 915.232C1272.67 915.374 1272.59 915.515 1272.51 915.655C1272.45 915.769 1272.39 915.884 1272.33 915.998C1272.29 916.077 1272.24 916.155 1272.2 916.233C1272.13 916.359 1272.06 916.485 1271.99 916.61C1271.91 916.751 1271.83 916.892 1271.75 917.032C1271.64 917.225 1271.53 917.418 1271.42 917.609C1271.33 917.752 1271.25 917.893 1271.17 918.035C1271.09 918.163 1271.02 918.29 1270.94 918.417C1270.83 918.603 1270.72 918.788 1270.61 918.973C1270.52 919.116 1270.43 919.258 1270.35 919.4C1270.27 919.534 1270.18 919.668 1270.1 919.801C1270 919.962 1269.9 920.123 1269.8 920.283C1269.71 920.423 1269.63 920.561 1269.54 920.7C1269.48 920.793 1269.42 920.887 1269.36 920.98C1269.36 920.986 1269.35 920.992 1269.35 920.997C1269.31 921.059 1269.27 921.12 1269.23 921.182C1269.21 921.216 1269.18 921.25 1269.16 921.284C1269.09 921.395 1269.02 921.506 1268.95 921.616C1268.85 921.762 1268.75 921.907 1268.66 922.052C1268.61 922.127 1268.56 922.204 1268.51 922.279C1268.47 922.336 1268.43 922.39 1268.39 922.446C1268.27 922.629 1268.15 922.811 1268.02 922.993C1267.95 923.109 1267.87 923.224 1267.79 923.339C1267.7 923.471 1267.6 923.602 1267.51 923.733C1267.49 923.77 1267.46 923.807 1267.44 923.843C1267.38 923.92 1267.33 923.998 1267.28 924.075C1267.22 924.161 1267.16 924.245 1267.09 924.329C1267.01 924.447 1266.93 924.563 1266.84 924.681C1266.75 924.813 1266.65 924.945 1266.56 925.076C1266.44 925.239 1266.32 925.401 1266.2 925.563C1266.12 925.677 1266.03 925.789 1265.95 925.902C1265.84 926.053 1265.72 926.203 1265.61 926.353C1265.6 926.364 1265.59 926.375 1265.58 926.387C1265.49 926.513 1265.39 926.64 1265.3 926.766C1265.19 926.902 1265.09 927.038 1264.98 927.174C1264.88 927.308 1264.77 927.442 1264.67 927.576C1264.65 927.598 1264.63 927.62 1264.62 927.642C1264.6 927.661 1264.59 927.68 1264.57 927.699C1264.57 927.702 1264.57 927.705 1264.56 927.708C1264.48 927.813 1264.4 927.919 1264.32 928.023C1264.22 928.143 1264.12 928.262 1264.03 928.381L1263.96 928.467C1263.86 928.59 1263.76 928.714 1263.66 928.837C1263.6 928.91 1263.54 928.985 1263.48 929.059C1263.43 929.126 1263.37 929.192 1263.31 929.259C1263.2 929.392 1263.09 929.524 1262.98 929.657C1262.89 929.769 1262.79 929.88 1262.7 929.991C1262.67 930.027 1262.64 930.063 1262.61 930.099C1262.61 930.104 1262.6 930.108 1262.6 930.113C1262.56 930.164 1262.51 930.218 1262.47 930.269C1262.42 930.333 1262.36 930.396 1262.3 930.461C1262.18 930.6 1262.06 930.738 1261.94 930.876C1261.84 931.001 1261.73 931.125 1261.62 931.249C1261.61 931.261 1261.6 931.273 1261.59 931.285C1261.53 931.354 1261.47 931.425 1261.41 931.494C1261.32 931.589 1261.24 931.683 1261.15 931.777C1261.1 931.833 1261.05 931.887 1261 931.942C1261 931.944 1261 931.947 1261 931.948C1260.95 932.007 1260.89 932.065 1260.84 932.124C1260.75 932.218 1260.67 932.313 1260.58 932.406C1260.44 932.571 1260.28 932.733 1260.13 932.896C1260.05 932.984 1259.97 933.07 1259.89 933.157C1259.77 933.289 1259.64 933.421 1259.52 933.553C1259.51 933.565 1259.5 933.578 1259.49 933.59C1259.47 933.606 1259.45 933.623 1259.44 933.64C1259.32 933.76 1259.21 933.879 1259.09 933.999C1258.99 934.109 1258.88 934.219 1258.78 934.328C1258.74 934.362 1258.71 934.395 1258.68 934.429C1258.6 934.512 1258.52 934.595 1258.44 934.678C1258.42 934.697 1258.4 934.717 1258.38 934.736C1258.37 934.752 1258.35 934.767 1258.33 934.782C1258.24 934.882 1258.14 934.982 1258.04 935.082C1257.96 935.158 1257.89 935.236 1257.81 935.312L1257.11 936.019L1257.1 936.014C1256.99 936.121 1256.88 936.227 1256.77 936.334C1256.73 936.372 1256.69 936.412 1256.65 936.45C1256.59 936.507 1256.53 936.563 1256.47 936.62C1256.38 936.71 1256.28 936.801 1256.19 936.891C1256.15 936.927 1256.11 936.964 1256.08 937C1256.07 937.011 1256.05 937.021 1256.04 937.031C1255.95 937.12 1255.85 937.208 1255.76 937.296C1255.72 937.329 1255.69 937.363 1255.65 937.396C1255.58 937.463 1255.51 937.529 1255.44 937.595C1255.29 937.727 1255.15 937.859 1255.01 937.99C1254.99 938.005 1254.98 938.021 1254.96 938.035C1254.89 938.101 1254.82 938.167 1254.75 938.232C1254.61 938.353 1254.48 938.472 1254.34 938.592C1254.18 938.738 1254.01 938.885 1253.85 939.03C1253.82 939.053 1253.8 939.076 1253.77 939.099C1253.76 939.114 1253.74 939.128 1253.72 939.143C1253.53 939.309 1253.34 939.474 1253.15 939.64C1252.98 939.788 1252.8 939.937 1252.63 940.084C1252.61 940.106 1252.58 940.128 1252.55 940.149C1252.55 940.156 1252.54 940.162 1252.53 940.169C1252.49 940.206 1252.44 940.245 1252.4 940.282C1252.28 940.379 1252.17 940.473 1252.05 940.569C1251.84 940.742 1251.64 940.915 1251.43 941.085C1251.4 941.107 1251.38 941.13 1251.35 941.152C1251.28 941.21 1251.21 941.269 1251.14 941.326C1250.98 941.449 1250.83 941.57 1250.68 941.692C1250.63 941.729 1250.59 941.765 1250.54 941.802C1250.43 941.888 1250.32 941.974 1250.21 942.06C1250.18 942.087 1250.15 942.115 1250.11 942.143C1250.09 942.158 1250.07 942.174 1250.05 942.189C1249.9 942.307 1249.75 942.422 1249.6 942.538C1249.54 942.581 1249.49 942.624 1249.43 942.667C1249.41 942.681 1249.39 942.696 1249.38 942.71C1249.23 942.819 1249.09 942.929 1248.95 943.037C1248.91 943.067 1248.87 943.098 1248.83 943.127C1248.82 943.134 1248.81 943.141 1248.8 943.148C1248.67 943.246 1248.54 943.342 1248.41 943.438C1248.33 943.499 1248.25 943.56 1248.17 943.62C1248.14 943.645 1248.1 943.67 1248.07 943.695C1247.92 943.806 1247.77 943.917 1247.62 944.027C1247.43 944.159 1247.25 944.289 1247.07 944.42C1247.01 944.462 1246.95 944.506 1246.89 944.548C1246.86 944.57 1246.83 944.591 1246.8 944.613C1246.65 944.717 1246.51 944.821 1246.36 944.924C1246.33 944.941 1246.31 944.96 1246.28 944.978C1246.21 945.033 1246.13 945.09 1246.05 945.145C1245.9 945.249 1245.75 945.35 1245.6 945.453C1245.57 945.475 1245.53 945.495 1245.5 945.517C1245.35 945.621 1245.2 945.725 1245.04 945.828C1245.02 945.846 1244.99 945.863 1244.97 945.881C1244.95 945.889 1244.94 945.896 1244.93 945.904C1244.88 945.938 1244.83 945.973 1244.78 946.007C1244.68 946.073 1244.58 946.137 1244.48 946.203C1244.42 946.246 1244.35 946.29 1244.29 946.333C1244.26 946.347 1244.24 946.36 1244.22 946.374C1244.07 946.474 1243.92 946.574 1243.77 946.673C1243.72 946.7 1243.68 946.728 1243.64 946.755C1243.61 946.774 1243.58 946.792 1243.55 946.812C1243.46 946.869 1243.37 946.926 1243.29 946.982C1243.18 947.051 1243.07 947.121 1242.96 947.189C1242.91 947.22 1242.86 947.249 1242.82 947.279C1242.7 947.35 1242.59 947.422 1242.48 947.492C1242.41 947.531 1242.35 947.571 1242.29 947.609C1242.26 947.629 1242.23 947.647 1242.2 947.666C1242.1 947.727 1242 947.786 1241.9 947.847C1241.81 947.904 1241.71 947.963 1241.62 948.021C1241.57 948.049 1241.52 948.078 1241.47 948.106C1241.34 948.185 1241.21 948.264 1241.08 948.342C1241.05 948.364 1241.01 948.387 1240.97 948.409C1240.95 948.424 1240.92 948.438 1240.9 948.452C1240.7 948.572 1240.49 948.69 1240.29 948.808C1240.11 948.914 1239.93 949.021 1239.74 949.126C1239.7 949.151 1239.66 949.176 1239.61 949.201C1239.58 949.218 1239.55 949.233 1239.53 949.249C1239.47 949.279 1239.42 949.312 1239.37 949.343C1239.24 949.414 1239.11 949.482 1238.98 949.553C1238.96 949.564 1238.94 949.577 1238.92 949.589C1238.74 949.692 1238.55 949.795 1238.37 949.896C1238.32 949.925 1238.27 949.954 1238.21 949.982C1238.17 950.009 1238.12 950.034 1238.07 950.061C1237.99 950.104 1237.91 950.147 1237.83 950.19C1237.7 950.256 1237.58 950.323 1237.46 950.389C1237.43 950.403 1237.4 950.417 1237.38 950.432C1237.22 950.514 1237.06 950.597 1236.91 950.679C1236.88 950.694 1236.85 950.71 1236.82 950.725C1236.8 950.738 1236.77 950.75 1236.75 950.764C1236.59 950.847 1236.43 950.929 1236.27 951.011C1236.2 951.045 1236.13 951.08 1236.07 951.114C1236.03 951.13 1236 951.146 1235.97 951.162C1235.84 951.229 1235.71 951.296 1235.58 951.362C1235.51 951.396 1235.44 951.432 1235.37 951.466C1235.33 951.489 1235.28 951.511 1235.23 951.534C1235.21 951.545 1235.19 951.558 1235.17 951.569C1235.08 951.61 1235 951.647 1234.92 951.687C1234.85 951.723 1234.77 951.761 1234.7 951.798C1234.67 951.81 1234.65 951.821 1234.62 951.833C1234.45 951.918 1234.27 952.003 1234.1 952.087C1234.05 952.111 1234 952.136 1233.95 952.16C1233.91 952.176 1233.88 952.191 1233.85 952.207C1233.81 952.223 1233.78 952.241 1233.74 952.258C1233.66 952.299 1233.57 952.338 1233.48 952.379C1233.41 952.413 1233.33 952.448 1233.26 952.482C1233.2 952.51 1233.14 952.537 1233.08 952.564C1232.97 952.617 1232.85 952.67 1232.74 952.723C1232.66 952.758 1232.58 952.796 1232.5 952.831C1232.41 952.871 1232.33 952.912 1232.24 952.951L1232.24 952.957L1231.33 953.355C1231.23 953.395 1231.14 953.434 1231.05 953.474C1231.02 953.484 1231 953.494 1230.98 953.504C1230.85 953.557 1230.73 953.61 1230.6 953.662C1230.54 953.69 1230.47 953.718 1230.41 953.746C1230.32 953.783 1230.23 953.819 1230.14 953.855C1230.07 953.887 1229.99 953.922 1229.91 953.954C1229.87 953.971 1229.83 953.985 1229.79 954.001C1229.73 954.029 1229.66 954.059 1229.59 954.087C1229.56 954.099 1229.53 954.11 1229.5 954.122C1229.4 954.165 1229.29 954.206 1229.18 954.249C1229.1 954.284 1229.01 954.32 1228.92 954.355C1228.74 954.427 1228.56 954.503 1228.38 954.573C1228.31 954.603 1228.23 954.631 1228.15 954.661C1228.09 954.684 1228.03 954.707 1227.97 954.729C1227.93 954.746 1227.89 954.763 1227.84 954.779C1227.67 954.846 1227.49 954.913 1227.32 954.979C1227.18 955.032 1227.04 955.087 1226.9 955.139C1226.82 955.167 1226.74 955.194 1226.66 955.223C1226.58 955.253 1226.5 955.286 1226.42 955.316C1226.22 955.389 1226.02 955.457 1225.82 955.528C1225.78 955.542 1225.74 955.554 1225.71 955.567C1225.58 955.61 1225.46 955.653 1225.34 955.695C1225.3 955.71 1225.26 955.726 1225.22 955.74C1225.17 955.756 1225.13 955.77 1225.08 955.785C1224.95 955.831 1224.82 955.876 1224.68 955.921C1224.55 955.966 1224.42 956.013 1224.28 956.058C1224.2 956.086 1224.11 956.114 1224.03 956.143C1223.99 956.154 1223.96 956.165 1223.93 956.176C1223.86 956.198 1223.79 956.221 1223.73 956.243C1223.67 956.263 1223.61 956.281 1223.55 956.3C1223.44 956.336 1223.32 956.371 1223.21 956.407C1223.07 956.453 1222.92 956.5 1222.77 956.546C1222.76 956.549 1222.76 956.552 1222.75 956.555C1222.62 956.594 1222.5 956.634 1222.37 956.673C1222.32 956.689 1222.26 956.706 1222.21 956.723C1222.12 956.752 1222.02 956.783 1221.93 956.812C1221.73 956.87 1221.54 956.924 1221.35 956.981L1220.88 957.122C1220.79 957.147 1220.7 957.17 1220.62 957.194C1220.58 957.206 1220.54 957.217 1220.5 957.229C1220.42 957.249 1220.35 957.267 1220.28 957.287C1220.15 957.325 1220.01 957.364 1219.87 957.401C1219.79 957.425 1219.7 957.449 1219.61 957.473C1219.51 957.5 1219.41 957.528 1219.31 957.555C1219.26 957.57 1219.2 957.587 1219.14 957.603C1219.09 957.617 1219.03 957.63 1218.98 957.644C1218.93 957.657 1218.88 957.67 1218.83 957.684C1218.65 957.73 1218.47 957.778 1218.29 957.824C1218.21 957.845 1218.13 957.864 1218.04 957.885C1217.94 957.911 1217.84 957.937 1217.73 957.963C1217.69 957.973 1217.65 957.984 1217.61 957.994C1217.57 958.003 1217.54 958.011 1217.5 958.021C1217.42 958.04 1217.34 958.06 1217.26 958.079C1217.17 958.101 1217.08 958.124 1216.99 958.146C1216.89 958.168 1216.8 958.189 1216.71 958.211L1216.27 958.313C1216.2 958.328 1216.14 958.344 1216.08 958.358C1216.04 958.368 1215.99 958.376 1215.95 958.386C1215.85 958.409 1215.74 958.431 1215.64 958.454C1215.49 958.486 1215.35 958.519 1215.2 958.551C1215.11 958.571 1215.02 958.59 1214.93 958.609C1214.85 958.626 1214.77 958.643 1214.7 958.659C1214.63 958.673 1214.57 958.687 1214.51 958.7C1214.43 958.716 1214.35 958.734 1214.28 958.75C1214.07 958.793 1213.85 958.832 1213.64 958.874C1213.55 958.892 1213.46 958.909 1213.36 958.928C1213.3 958.94 1213.24 958.953 1213.18 958.965C1213.11 958.977 1213.05 958.989 1212.99 959.001C1212.9 959.018 1212.82 959.036 1212.73 959.053C1212.52 959.091 1212.31 959.126 1212.1 959.163C1212.03 959.176 1211.95 959.189 1211.88 959.202C1211.78 959.22 1211.67 959.239 1211.57 959.257C1211.53 959.264 1211.49 959.272 1211.44 959.279C1211.4 959.287 1211.35 959.295 1211.3 959.303C1211.2 959.32 1211.1 959.335 1210.99 959.352C1210.86 959.374 1210.72 959.397 1210.58 959.419C1210.52 959.43 1210.45 959.44 1210.38 959.451C1210.25 959.471 1210.13 959.491 1210 959.511C1209.95 959.519 1209.9 959.528 1209.84 959.536C1209.81 959.541 1209.77 959.546 1209.74 959.551C1209.63 959.567 1209.53 959.58 1209.42 959.596C1209.29 959.615 1209.16 959.635 1209.02 959.654C1208.95 959.665 1208.87 959.674 1208.8 959.685C1208.69 959.7 1208.57 959.716 1208.46 959.731C1208.41 959.738 1208.36 959.746 1208.31 959.753C1208.28 959.757 1208.24 959.761 1208.21 959.766C1208.07 959.784 1207.93 959.801 1207.78 959.819C1207.66 959.834 1207.54 959.85 1207.42 959.865C1207.32 959.877 1207.22 959.888 1207.12 959.9C1207.07 959.907 1207.01 959.915 1206.95 959.922C1206.86 959.933 1206.77 959.945 1206.68 959.955C1206.64 959.96 1206.59 959.963 1206.55 959.968C1206.5 959.974 1206.44 959.979 1206.38 959.985C1206.22 960.004 1206.05 960.022 1205.88 960.04C1205.77 960.051 1205.66 960.062 1205.55 960.073C1205.49 960.079 1205.44 960.084 1205.38 960.09C1205.31 960.097 1205.24 960.105 1205.17 960.111C1205.08 960.12 1204.98 960.132 1204.89 960.141C1204.66 960.162 1204.43 960.178 1204.2 960.197C1204.12 960.204 1204.03 960.21 1203.95 960.218C1203.9 960.221 1203.86 960.226 1203.81 960.229C1203.76 960.234 1203.7 960.24 1203.64 960.244C1203.58 960.249 1203.53 960.252 1203.47 960.256C1203.36 960.264 1203.25 960.271 1203.15 960.278C1203 960.288 1202.86 960.3 1202.72 960.31C1202.56 960.32 1202.4 960.332 1202.24 960.342C1202.15 960.347 1202.06 960.351 1201.97 960.356C1201.94 960.358 1201.91 960.36 1201.87 960.361C1201.79 960.366 1201.7 960.37 1201.62 960.375C1201.5 960.381 1201.38 960.389 1201.26 960.395C1201.1 960.403 1200.93 960.408 1200.77 960.416C1200.74 960.417 1200.71 960.42 1200.68 960.421C1200.6 960.424 1200.52 960.429 1200.44 960.432C1200.34 960.436 1200.23 960.442 1200.13 960.445C1199.94 960.452 1199.75 960.455 1199.56 960.461C1199.45 960.464 1199.33 960.467 1199.21 960.471C1199.17 960.472 1199.13 960.473 1199.1 960.474C1199.02 960.476 1198.94 960.479 1198.87 960.48C1198.76 960.483 1198.65 960.486 1198.54 960.488C1198.34 960.492 1198.15 960.492 1197.95 960.494C1197.85 960.495 1197.74 960.495 1197.64 960.496C1197.59 960.496 1197.55 960.497 1197.51 960.497C1197.42 960.498 1197.33 960.5 1197.25 960.5C1197.15 960.5 1197.04 960.502 1196.94 960.502C1196.87 960.502 1196.81 960.501 1196.74 960.5H1196V960.495C1195.98 960.495 1195.95 960.495 1195.93 960.495C1195.83 960.494 1195.74 960.491 1195.64 960.489C1195.6 960.489 1195.55 960.486 1195.5 960.485V958.482C1195.57 958.484 1195.64 958.486 1195.7 958.487C1195.8 958.489 1195.9 958.489 1196 958.49V885.953C1196.33 885.982 1196.67 886 1197 886C1197.34 886 1197.67 885.982 1198 885.953V958.49C1198.52 958.484 1199.04 958.473 1199.56 958.457C1201.55 958.396 1203.54 958.265 1205.52 958.063C1206.07 958.007 1206.62 957.946 1207.17 957.879C1209.23 957.628 1211.27 957.301 1213.3 956.899C1213.8 956.8 1214.31 956.696 1214.81 956.587C1215.78 956.375 1216.76 956.146 1217.72 955.9C1219.42 955.469 1221.09 954.985 1222.76 954.449C1223.05 954.353 1223.35 954.256 1223.65 954.156C1223.85 954.09 1224.05 954.022 1224.24 953.954C1224.55 953.849 1224.86 953.742 1225.17 953.633C1225.83 953.397 1226.49 953.152 1227.15 952.899C1227.38 952.809 1227.62 952.718 1227.85 952.625C1227.88 952.612 1227.92 952.599 1227.95 952.586C1228.18 952.496 1228.4 952.404 1228.63 952.312C1228.88 952.211 1229.13 952.11 1229.38 952.006C1229.39 951.999 1229.41 951.993 1229.42 951.986C1229.48 951.961 1229.54 951.936 1229.6 951.91L1200.66 885.403C1201.29 885.19 1201.91 884.925 1202.49 884.607L1231.44 951.111C1238.3 948.029 1244.68 944.056 1250.43 939.316C1250.73 939.068 1251.03 938.817 1251.33 938.563C1251.46 938.454 1251.59 938.343 1251.71 938.232C1253.04 937.095 1254.33 935.915 1255.58 934.696C1255.62 934.663 1255.65 934.63 1255.68 934.597L1204.4 883.307C1204.91 882.877 1205.38 882.404 1205.81 881.893L1257.1 933.182C1257.21 933.064 1257.33 932.946 1257.44 932.828C1261.87 928.237 1265.75 923.18 1269 917.761C1269.02 917.729 1269.04 917.697 1269.06 917.665C1269.17 917.481 1269.28 917.296 1269.39 917.111C1269.49 916.933 1269.6 916.754 1269.7 916.575C1269.79 916.416 1269.89 916.256 1269.98 916.096C1270.06 915.949 1270.14 915.802 1270.22 915.655C1270.28 915.563 1270.33 915.471 1270.38 915.379C1270.52 915.121 1270.67 914.863 1270.81 914.604C1270.9 914.428 1271 914.252 1271.09 914.076C1271.48 913.353 1271.85 912.624 1272.22 911.889C1272.31 911.708 1272.4 911.527 1272.48 911.346C1272.65 911.008 1272.81 910.67 1272.97 910.33C1273.06 910.155 1273.14 909.979 1273.22 909.804C1273.39 909.428 1273.56 909.051 1273.73 908.672C1273.77 908.585 1273.81 908.497 1273.85 908.409C1274.17 907.689 1274.48 906.965 1274.77 906.234C1274.78 906.218 1274.79 906.201 1274.79 906.185L1207.3 879.626C1207.59 879.033 1207.84 878.412 1208.03 877.766L1275.52 904.322C1275.55 904.246 1275.58 904.169 1275.61 904.093C1275.73 903.78 1275.85 903.467 1275.96 903.153C1276.04 902.922 1276.13 902.69 1276.21 902.458C1276.28 902.247 1276.36 902.035 1276.43 901.823C1276.51 901.584 1276.59 901.345 1276.67 901.105C1276.91 900.404 1277.13 899.699 1277.35 898.991C1277.42 898.766 1277.48 898.54 1277.55 898.314C1277.62 898.071 1277.69 897.828 1277.76 897.584C1277.97 896.847 1278.17 896.107 1278.37 895.364C1278.45 895.031 1278.53 894.697 1278.62 894.363C1278.76 893.764 1278.9 893.164 1279.03 892.562C1279.11 892.223 1279.18 891.884 1279.25 891.544C1279.4 890.813 1279.54 890.079 1279.68 889.344C1279.71 889.134 1279.75 888.924 1279.79 888.714C1280.53 884.374 1280.94 879.965 1280.99 875.526C1280.99 875.518 1280.99 875.509 1280.99 875.5H1208.46C1208.49 875.17 1208.5 874.837 1208.5 874.5C1208.5 874.163 1208.49 873.83 1208.46 873.5H1280.99C1280.99 873.424 1280.99 873.347 1280.99 873.271C1280.99 873.033 1280.98 872.794 1280.98 872.557C1280.73 861.965 1278.49 851.57 1274.41 841.898L1207.91 870.846C1207.69 870.207 1207.43 869.593 1207.11 869.01L1273.61 840.064C1273.39 839.568 1273.16 839.074 1272.93 838.582C1272.3 837.255 1271.64 835.947 1270.95 834.658C1270.24 833.339 1269.49 832.038 1268.71 830.755C1268.68 830.712 1268.65 830.668 1268.63 830.625C1268.43 830.303 1268.23 829.982 1268.03 829.662C1268.02 829.657 1268.02 829.651 1268.02 829.646C1267.67 829.089 1267.31 828.537 1266.94 827.988C1266.66 827.563 1266.37 827.141 1266.08 826.721C1266.08 826.71 1266.07 826.699 1266.06 826.688C1265.82 826.338 1265.57 825.99 1265.33 825.644C1264.18 824.048 1262.99 822.491 1261.73 820.976C1260.41 819.371 1259.02 817.819 1257.58 816.322C1257.5 816.239 1257.42 816.155 1257.34 816.071C1257.26 815.987 1257.18 815.903 1257.1 815.819L1205.81 867.106C1205.38 866.595 1204.91 866.122 1204.39 865.692L1255.68 814.404C1247.94 806.849 1238.79 800.825 1228.68 796.71L1202.13 864.204C1201.53 863.908 1200.91 863.662 1200.27 863.472L1226.82 795.978C1217.75 792.531 1208.19 790.7 1198.57 790.519C1198.38 790.515 1198.19 790.515 1198 790.513V863.046C1197.67 863.017 1197.34 863 1197 863C1196.67 863 1196.33 863.017 1196 863.046V790.512C1195.86 790.513 1195.73 790.513 1195.59 790.516C1194.95 790.526 1194.32 790.546 1193.68 790.571C1192.07 790.635 1190.45 790.745 1188.84 790.902C1188.79 790.907 1188.74 790.911 1188.68 790.916C1188.26 790.958 1187.83 791.005 1187.41 791.054C1187.38 791.057 1187.35 791.06 1187.32 791.063C1186.92 791.11 1186.52 791.16 1186.13 791.212C1185.15 791.34 1184.17 791.484 1183.2 791.646C1176.77 792.718 1170.46 794.537 1164.4 797.091L1193.35 863.597C1192.71 863.811 1192.09 864.075 1191.51 864.393L1162.56 797.89C1153.61 801.914 1145.4 807.491 1138.32 814.401L1189.61 865.692C1189.1 866.122 1188.63 866.595 1188.2 867.106L1136.91 815.816C1136.9 815.821 1136.9 815.826 1136.89 815.831C1133.78 819.016 1130.95 822.43 1128.4 826.035C1128.31 826.165 1128.22 826.295 1128.12 826.425C1127.6 827.179 1127.09 827.942 1126.58 828.712C1126.54 828.778 1126.5 828.844 1126.46 828.91C1126.01 829.596 1125.58 830.289 1125.16 830.987C1125.02 831.213 1124.88 831.439 1124.75 831.666C1124.42 832.218 1124.1 832.773 1123.79 833.332C1123.54 833.767 1123.3 834.203 1123.07 834.642C1123.03 834.714 1122.99 834.787 1122.95 834.86C1122.56 835.594 1122.17 836.334 1121.8 837.079C1121.71 837.273 1121.61 837.467 1121.52 837.661C1121.14 838.422 1120.78 839.189 1120.44 839.961C1120.41 840.014 1120.39 840.068 1120.36 840.122C1120.36 840.141 1120.35 840.16 1120.34 840.179C1120.13 840.656 1119.92 841.136 1119.71 841.617C1119.66 841.728 1119.62 841.839 1119.57 841.95C1119.45 842.239 1119.33 842.528 1119.21 842.818L1186.71 869.376C1186.41 869.969 1186.17 870.591 1185.97 871.237L1118.48 844.68C1118.47 844.709 1118.46 844.738 1118.44 844.767C1118.31 845.134 1118.17 845.502 1118.04 845.871C1117.48 847.416 1116.96 848.979 1116.49 850.559C1116.4 850.865 1116.31 851.171 1116.22 851.479C1114.19 858.609 1113.1 866.012 1113.01 873.5H1185.55C1185.52 873.83 1185.5 874.163 1185.5 874.5C1185.5 874.837 1185.52 875.17 1185.55 875.5H1113.01C1113.01 875.667 1113.02 875.833 1113.02 876H1111.02C1111.02 875.952 1111.02 875.904 1111.02 875.856C1111.01 875.738 1111.01 875.619 1111.01 875.5H1111V874.5C1111 874.405 1111 874.31 1111 874.215C1111.01 874.126 1111 874.036 1111 873.947C1111 873.891 1111.01 873.835 1111.01 873.779C1111.01 873.739 1111.01 873.699 1111.01 873.659C1111.01 873.616 1111.01 873.573 1111.01 873.53C1111.01 873.425 1111.01 873.319 1111.01 873.214C1111.02 873.018 1111.02 872.823 1111.02 872.627C1111.03 872.47 1111.03 872.314 1111.04 872.157C1111.04 872.121 1111.04 872.086 1111.04 872.05C1111.04 872.033 1111.04 872.016 1111.04 871.999C1111.04 871.865 1111.05 871.731 1111.05 871.598C1111.06 871.408 1111.07 871.219 1111.07 871.029C1111.08 870.875 1111.09 870.721 1111.09 870.566C1111.1 870.377 1111.11 870.188 1111.12 869.999C1111.13 869.84 1111.14 869.681 1111.15 869.521C1111.16 869.322 1111.17 869.122 1111.18 868.922C1111.19 868.767 1111.21 868.613 1111.22 868.458C1111.23 868.285 1111.24 868.112 1111.25 867.939C1111.27 867.757 1111.28 867.575 1111.3 867.394C1111.31 867.206 1111.33 867.018 1111.35 866.83C1111.36 866.678 1111.37 866.527 1111.39 866.375C1111.41 866.163 1111.43 865.951 1111.45 865.739C1111.47 865.602 1111.48 865.464 1111.5 865.326C1111.51 865.144 1111.53 864.961 1111.55 864.779C1111.58 864.584 1111.6 864.388 1111.62 864.192C1111.65 864.013 1111.67 863.833 1111.69 863.653C1111.71 863.514 1111.73 863.375 1111.75 863.235C1111.77 863.048 1111.79 862.862 1111.82 862.675C1111.85 862.489 1111.87 862.302 1111.9 862.116C1111.92 861.958 1111.95 861.799 1111.97 861.641C1112 861.453 1112.03 861.265 1112.06 861.077C1112.08 860.91 1112.11 860.742 1112.14 860.575C1112.16 860.419 1112.19 860.262 1112.22 860.105C1112.23 860.008 1112.25 859.909 1112.26 859.812C1112.27 859.8 1112.27 859.788 1112.27 859.776L1112.33 859.47C1112.35 859.319 1112.38 859.168 1112.41 859.017C1112.44 858.848 1112.47 858.68 1112.5 858.512C1112.54 858.333 1112.57 858.154 1112.61 857.976C1112.62 857.891 1112.64 857.806 1112.66 857.722C1112.67 857.638 1112.69 857.554 1112.71 857.471C1112.74 857.293 1112.78 857.114 1112.82 856.937C1112.85 856.766 1112.89 856.595 1112.92 856.425C1112.96 856.254 1113 856.083 1113.04 855.912C1113.08 855.741 1113.11 855.57 1113.15 855.398C1113.19 855.225 1113.23 855.052 1113.27 854.879C1113.31 854.707 1113.35 854.534 1113.39 854.362C1113.43 854.205 1113.47 854.048 1113.51 853.892C1113.56 853.689 1113.61 853.487 1113.66 853.285C1113.7 853.137 1113.74 852.989 1113.78 852.842C1113.82 852.68 1113.86 852.519 1113.9 852.357C1113.93 852.274 1113.95 852.189 1113.97 852.105C1114 852.005 1114.03 851.905 1114.05 851.805C1114.1 851.634 1114.15 851.463 1114.19 851.293C1114.24 851.144 1114.28 850.996 1114.32 850.848C1114.38 850.65 1114.43 850.452 1114.49 850.255C1114.54 850.088 1114.59 849.921 1114.64 849.754C1114.68 849.612 1114.73 849.47 1114.77 849.328C1114.82 849.156 1114.88 848.984 1114.93 848.812C1114.99 848.61 1115.06 848.407 1115.12 848.205C1115.16 848.081 1115.2 847.958 1115.24 847.834C1115.31 847.639 1115.37 847.444 1115.44 847.249C1115.49 847.087 1115.54 846.925 1115.6 846.763C1115.65 846.613 1115.7 846.463 1115.75 846.313C1115.82 846.122 1115.89 845.931 1115.96 845.74C1116.01 845.586 1116.06 845.431 1116.12 845.277C1116.18 845.11 1116.24 844.944 1116.3 844.777C1116.36 844.617 1116.42 844.456 1116.48 844.296C1116.55 844.125 1116.61 843.954 1116.68 843.783C1116.74 843.626 1116.8 843.47 1116.86 843.313C1116.91 843.187 1116.96 843.06 1117 842.934L1117.34 842.083L1117.34 842.084C1117.38 842.005 1117.41 841.926 1117.44 841.847C1117.48 841.761 1117.51 841.675 1117.55 841.589C1117.59 841.479 1117.64 841.37 1117.69 841.261C1117.74 841.144 1117.79 841.027 1117.83 840.91C1117.9 840.75 1117.97 840.59 1118.04 840.43C1118.09 840.327 1118.13 840.224 1118.17 840.122C1118.22 840.004 1118.28 839.887 1118.33 839.769C1118.37 839.669 1118.42 839.57 1118.46 839.471C1118.54 839.291 1118.62 839.112 1118.7 838.933C1118.78 838.755 1118.86 838.578 1118.95 838.401C1119.01 838.253 1119.08 838.105 1119.15 837.957C1119.22 837.815 1119.29 837.674 1119.35 837.532C1119.45 837.334 1119.54 837.135 1119.64 836.938C1119.7 836.818 1119.76 836.698 1119.82 836.578C1119.9 836.414 1119.98 836.251 1120.06 836.088C1120.11 835.994 1120.15 835.9 1120.2 835.807C1120.24 835.72 1120.29 835.634 1120.33 835.547C1120.4 835.418 1120.46 835.29 1120.53 835.162C1120.61 835.001 1120.69 834.84 1120.78 834.68C1120.88 834.494 1120.97 834.309 1121.07 834.124C1121.13 834.005 1121.2 833.886 1121.26 833.768C1121.35 833.608 1121.43 833.448 1121.52 833.289C1121.63 833.091 1121.74 832.893 1121.85 832.695C1121.9 832.605 1121.95 832.515 1122 832.425C1122.1 832.249 1122.2 832.074 1122.3 831.899C1122.4 831.715 1122.51 831.532 1122.61 831.349C1122.68 831.228 1122.75 831.108 1122.82 830.987C1122.92 830.832 1123.01 830.677 1123.1 830.521C1123.21 830.344 1123.31 830.166 1123.42 829.989C1123.48 829.88 1123.55 829.771 1123.62 829.662C1123.71 829.507 1123.81 829.353 1123.9 829.198C1124.02 829.016 1124.13 828.833 1124.24 828.651C1124.31 828.545 1124.38 828.438 1124.45 828.332C1124.55 828.165 1124.66 827.999 1124.77 827.832C1124.88 827.66 1124.99 827.488 1125.1 827.317C1125.17 827.212 1125.24 827.107 1125.31 827.002C1125.37 826.908 1125.43 826.814 1125.5 826.721C1125.54 826.65 1125.59 826.581 1125.64 826.511C1125.76 826.333 1125.88 826.155 1126 825.978C1126.06 825.893 1126.12 825.809 1126.17 825.726C1126.29 825.552 1126.41 825.378 1126.53 825.205C1126.66 825.031 1126.78 824.858 1126.9 824.685C1126.96 824.596 1127.03 824.507 1127.09 824.418C1127.21 824.253 1127.33 824.087 1127.45 823.923C1127.58 823.747 1127.7 823.572 1127.83 823.397C1127.9 823.311 1127.96 823.226 1128.03 823.14C1128.15 822.967 1128.28 822.794 1128.41 822.622C1128.52 822.478 1128.63 822.335 1128.74 822.192C1128.83 822.081 1128.91 821.969 1129 821.858C1129.12 821.694 1129.25 821.531 1129.38 821.368C1129.5 821.216 1129.62 821.064 1129.74 820.912C1129.82 820.816 1129.89 820.721 1129.97 820.625C1130.09 820.47 1130.22 820.316 1130.34 820.162C1130.4 820.089 1130.46 820.015 1130.52 819.941C1130.6 819.845 1130.68 819.751 1130.76 819.655C1130.83 819.578 1130.89 819.5 1130.95 819.423C1131.09 819.264 1131.22 819.106 1131.35 818.948C1131.41 818.876 1131.47 818.803 1131.54 818.731C1131.61 818.649 1131.68 818.567 1131.75 818.484C1131.84 818.382 1131.93 818.28 1132.01 818.178C1132.14 818.029 1132.27 817.88 1132.4 817.732C1132.54 817.578 1132.67 817.424 1132.81 817.271C1132.89 817.182 1132.97 817.095 1133.05 817.007C1133.17 816.867 1133.3 816.727 1133.43 816.588C1133.59 816.413 1133.75 816.239 1133.91 816.065C1133.97 816.001 1134.03 815.936 1134.09 815.872C1134.25 815.701 1134.4 815.53 1134.57 815.36C1134.59 815.338 1134.61 815.315 1134.63 815.293C1134.69 815.223 1134.76 815.154 1134.83 815.084C1134.86 815.05 1134.89 815.016 1134.93 814.981C1135.03 814.879 1135.12 814.776 1135.22 814.674C1135.36 814.528 1135.51 814.384 1135.65 814.239C1135.76 814.122 1135.88 814.005 1135.99 813.889C1136.06 813.822 1136.13 813.755 1136.19 813.688L1136.9 812.981L1136.9 812.984C1137.06 812.831 1137.22 812.68 1137.38 812.527C1137.54 812.372 1137.7 812.216 1137.86 812.062C1138.07 811.866 1138.28 811.673 1138.49 811.479C1138.69 811.293 1138.89 811.107 1139.09 810.923C1139.25 810.781 1139.4 810.641 1139.56 810.5C1139.78 810.299 1140.01 810.097 1140.24 809.898C1140.42 809.74 1140.6 809.583 1140.78 809.426C1141 809.233 1141.23 809.041 1141.45 808.851C1141.62 808.71 1141.79 808.569 1141.95 808.43C1142.19 808.233 1142.43 808.036 1142.67 807.842C1142.85 807.694 1143.03 807.548 1143.21 807.402C1143.43 807.226 1143.65 807.051 1143.87 806.877C1144.09 806.702 1144.32 806.53 1144.54 806.357C1144.74 806.208 1144.93 806.058 1145.12 805.91C1145.32 805.763 1145.52 805.617 1145.71 805.472C1145.95 805.295 1146.19 805.119 1146.43 804.945C1146.61 804.809 1146.8 804.675 1146.99 804.541C1147.23 804.37 1147.47 804.2 1147.71 804.031C1147.9 803.895 1148.1 803.76 1148.3 803.625C1148.53 803.461 1148.77 803.297 1149.01 803.136C1149.08 803.089 1149.15 803.04 1149.22 802.993C1149.37 802.897 1149.51 802.804 1149.66 802.709C1149.89 802.559 1150.11 802.408 1150.34 802.26C1150.54 802.132 1150.74 802.006 1150.94 801.88C1151.19 801.719 1151.45 801.559 1151.7 801.4C1151.72 801.387 1151.74 801.373 1151.77 801.359C1151.88 801.291 1151.99 801.225 1152.1 801.157C1152.15 801.123 1152.21 801.09 1152.26 801.057C1152.52 800.902 1152.77 800.749 1153.02 800.597C1153.26 800.459 1153.49 800.324 1153.72 800.188C1153.93 800.063 1154.15 799.938 1154.37 799.814C1154.46 799.762 1154.55 799.709 1154.64 799.657C1154.79 799.574 1154.94 799.494 1155.08 799.411C1155.32 799.279 1155.56 799.146 1155.8 799.016C1156 798.904 1156.21 798.793 1156.42 798.683C1156.67 798.546 1156.93 798.41 1157.18 798.275C1157.41 798.157 1157.64 798.04 1157.87 797.924C1158.11 797.801 1158.35 797.678 1158.59 797.557C1158.67 797.515 1158.76 797.472 1158.84 797.431C1158.97 797.366 1159.1 797.303 1159.23 797.239C1159.5 797.109 1159.77 796.979 1160.04 796.852C1160.26 796.745 1160.48 796.642 1160.71 796.537C1160.95 796.424 1161.19 796.312 1161.44 796.201C1161.54 796.152 1161.65 796.101 1161.76 796.052V796.047L1162.44 795.752C1162.6 795.68 1162.77 795.609 1162.93 795.538C1163 795.507 1163.07 795.475 1163.15 795.444C1163.29 795.381 1163.44 795.322 1163.59 795.26C1163.76 795.189 1163.92 795.116 1164.09 795.046C1164.18 795.01 1164.26 794.977 1164.35 794.941C1164.6 794.839 1164.85 794.738 1165.1 794.638C1165.34 794.543 1165.58 794.448 1165.82 794.355C1166.07 794.255 1166.33 794.157 1166.59 794.06C1166.82 793.973 1167.05 793.886 1167.28 793.801C1167.37 793.768 1167.46 793.733 1167.55 793.7C1167.71 793.64 1167.88 793.583 1168.05 793.523C1168.3 793.432 1168.56 793.34 1168.82 793.251C1169.06 793.168 1169.3 793.088 1169.54 793.007C1169.79 792.921 1170.04 792.836 1170.3 792.753C1170.54 792.675 1170.77 792.6 1171.01 792.524C1171.29 792.438 1171.56 792.351 1171.83 792.268C1172.05 792.202 1172.26 792.138 1172.48 792.073C1172.77 791.987 1173.06 791.901 1173.35 791.817C1173.58 791.751 1173.82 791.687 1174.05 791.623C1174.32 791.548 1174.59 791.473 1174.86 791.4C1175.09 791.34 1175.31 791.282 1175.54 791.224C1175.82 791.15 1176.11 791.076 1176.39 791.006C1176.64 790.946 1176.88 790.888 1177.13 790.83C1177.39 790.769 1177.64 790.708 1177.9 790.649C1178.13 790.597 1178.37 790.545 1178.6 790.494C1178.64 790.485 1178.68 790.476 1178.72 790.467C1178.75 790.461 1178.78 790.454 1178.81 790.448C1179.02 790.403 1179.23 790.357 1179.44 790.313C1179.52 790.297 1179.6 790.278 1179.68 790.262C1179.86 790.225 1180.05 790.19 1180.23 790.154C1180.49 790.102 1180.75 790.05 1181.01 790C1181.24 789.957 1181.47 789.917 1181.69 789.876C1182 789.821 1182.3 789.766 1182.61 789.714C1182.82 789.679 1183.02 789.646 1183.23 789.612C1183.54 789.563 1183.84 789.514 1184.14 789.468C1184.36 789.435 1184.58 789.404 1184.8 789.373C1185.1 789.33 1185.4 789.286 1185.7 789.246C1185.96 789.212 1186.22 789.181 1186.47 789.149C1186.73 789.118 1186.98 789.087 1187.23 789.059C1187.51 789.027 1187.78 788.998 1188.06 788.969C1188.3 788.944 1188.54 788.918 1188.78 788.895C1189.06 788.868 1189.33 788.844 1189.61 788.82C1189.87 788.798 1190.13 788.775 1190.39 788.755C1190.63 788.737 1190.87 788.72 1191.1 788.704C1191.4 788.684 1191.7 788.664 1191.99 788.646C1192.25 788.631 1192.51 788.619 1192.77 788.606C1193.02 788.594 1193.28 788.582 1193.53 788.571C1193.82 788.56 1194.1 788.552 1194.38 788.543C1194.63 788.535 1194.88 788.527 1195.13 788.521C1195.4 788.516 1195.68 788.512 1195.95 788.509C1196.21 788.506 1196.46 788.503 1196.72 788.502C1196.81 788.502 1196.91 788.5 1197 788.5H1198V788.505Z" fill="#EE3124"/>
<circle cx="1197" cy="874.5" r="10" stroke="#EE3124" stroke-width="2"/>
<path fill-rule="evenodd" clip-rule="evenodd" d="M498.5 155C560.625 155 618.938 171.326 669.381 199.922L668.062 201.476C617.987 173.161 560.131 157 498.5 157C307.962 157 153.5 311.462 153.5 502C153.5 692.538 307.962 847 498.5 847C689.038 847 843.5 692.538 843.5 502C843.5 415.426 811.611 336.302 758.939 275.729L760.249 274.186C813.346 335.14 845.5 414.814 845.5 502C845.5 693.643 690.143 849 498.5 849C306.857 849 151.5 693.643 151.5 502C151.5 310.357 306.857 155 498.5 155Z" fill="#EE3124"/>
<path d="M810.972 649.029C779.604 715.572 727.844 770.386 663.205 805.512C598.566 840.638 524.414 854.247 451.515 844.363C378.616 834.48 310.765 801.618 257.812 750.55C204.859 699.481 169.562 632.864 157.045 560.371L283.735 538.496C291.601 584.053 313.782 625.917 347.059 658.01C380.336 690.102 422.976 710.753 468.788 716.965C514.6 723.176 561.199 714.623 601.819 692.549C642.44 670.475 674.968 636.029 694.68 594.211L810.972 649.029Z" stroke="#EE3124" stroke-width="2"/>
<rect x="1503" y="738.5" width="99" height="99" stroke="#EE3124" stroke-width="2"/>
<path d="M1384.6 961.291C1384.72 961.612 1385.08 961.776 1385.4 961.655L1411.32 951.962C1425.96 946.488 1433.39 930.186 1427.91 915.55V915.55C1422.44 900.914 1406.14 893.487 1391.5 898.961V898.961C1376.86 904.434 1369.44 920.737 1374.91 935.372L1384.6 961.291Z" stroke="#EE3124" stroke-width="2"/>
<path d="M1545.84 967.632C1545.84 968.111 1545.45 968.5 1544.97 968.5H1506.34C1484.53 968.5 1466.84 950.815 1466.84 929V929C1466.84 907.185 1484.53 889.5 1506.34 889.5V889.5C1528.16 889.5 1545.84 907.185 1545.84 929V967.632Z" stroke="#EE3124" stroke-width="2"/>
<rect x="1082" y="547.5" width="36" height="150" rx="18" stroke="#EE3124" stroke-width="2"/>
<path fill-rule="evenodd" clip-rule="evenodd" d="M1118.5 608.653C1122.47 611.955 1125 616.932 1125 622.5C1125 628.068 1122.47 633.045 1118.5 636.347V633.622C1121.29 630.743 1123 626.822 1123 622.5C1123 618.178 1121.29 614.256 1118.5 611.377V608.653Z" fill="#EE3124"/>
<path fill-rule="evenodd" clip-rule="evenodd" d="M1133.01 668.09C1133.45 669.104 1132.99 670.282 1131.97 670.721L1128.72 672.129C1127.71 672.567 1126.53 672.102 1126.09 671.089L1118.5 653.559V648.527L1127.93 670.294L1131.18 668.885L1118.5 639.612V636.346C1118.69 636.189 1118.87 636.028 1119.06 635.864L1133.01 668.09ZM1174 618.271C1175.1 618.271 1176 619.167 1176 620.271V624.271C1176 625.376 1175.1 626.271 1174 626.271H1124.6C1124.74 625.617 1124.85 624.95 1124.91 624.271H1174V620.271H1124.86C1124.78 619.592 1124.66 618.925 1124.5 618.271H1174ZM1125.42 573.994C1125.88 572.989 1127.07 572.547 1128.07 573.006L1131.29 574.478C1132.3 574.937 1132.74 576.123 1132.28 577.128L1118.5 607.298V602.485L1130.46 576.297L1127.24 574.825L1118.5 593.959V589.146L1125.42 573.994Z" fill="#EE3124"/>
<rect x="1239" y="547.5" width="36" height="150" rx="18" stroke="#EE3124" stroke-width="2"/>
<path fill-rule="evenodd" clip-rule="evenodd" d="M1275.5 608.653C1279.47 611.955 1282 616.932 1282 622.5C1282 628.068 1279.47 633.045 1275.5 636.347V633.622C1278.29 630.743 1280 626.822 1280 622.5C1280 618.178 1278.29 614.256 1275.5 611.377V608.653Z" fill="#EE3124"/>
<path fill-rule="evenodd" clip-rule="evenodd" d="M1290.01 668.09C1290.45 669.104 1289.99 670.282 1288.97 670.721L1285.72 672.129C1284.71 672.567 1283.53 672.102 1283.09 671.089L1275 652.405V647.372L1284.93 670.294L1288.18 668.885L1275 638.457V636.747C1275.36 636.466 1275.72 636.171 1276.06 635.864L1290.01 668.09ZM1331 618.271C1332.1 618.271 1333 619.167 1333 620.271V624.271C1333 625.376 1332.1 626.271 1331 626.271H1281.6C1281.74 625.617 1281.85 624.95 1281.91 624.271H1331V620.271H1281.86C1281.78 619.592 1281.66 618.925 1281.5 618.271H1331ZM1282.42 573.994C1282.88 572.989 1284.07 572.547 1285.07 573.006L1288.29 574.478C1289.3 574.937 1289.74 576.123 1289.28 577.128L1275.05 608.288C1275.03 608.275 1275.02 608.264 1275 608.252V603.58L1287.46 576.297L1284.24 574.825L1275 595.052V590.241L1282.42 573.994Z" fill="#EE3124"/>
<rect x="1396" y="547.5" width="36" height="150" rx="18" stroke="#EE3124" stroke-width="2"/>
<path fill-rule="evenodd" clip-rule="evenodd" d="M1432.5 608.653C1436.47 611.955 1439 616.932 1439 622.5C1439 628.068 1436.47 633.045 1432.5 636.347V633.622C1435.29 630.743 1437 626.822 1437 622.5C1437 618.178 1435.29 614.256 1432.5 611.377V608.653Z" fill="#EE3124"/>
<path fill-rule="evenodd" clip-rule="evenodd" d="M1447.01 668.09C1447.45 669.104 1446.99 670.282 1445.97 670.721L1442.72 672.129C1441.71 672.567 1440.53 672.102 1440.09 671.089L1432.5 653.559V648.527L1441.93 670.294L1445.18 668.885L1432.5 639.612V636.346C1432.69 636.189 1432.87 636.028 1433.06 635.864L1447.01 668.09ZM1488 618.271C1489.1 618.271 1490 619.167 1490 620.271V624.271C1490 625.376 1489.1 626.271 1488 626.271H1438.6C1438.74 625.617 1438.85 624.95 1438.91 624.271H1488V620.271H1438.86C1438.78 619.592 1438.66 618.925 1438.5 618.271H1488ZM1439.42 573.994C1439.88 572.989 1441.07 572.547 1442.07 573.006L1445.29 574.478C1446.3 574.937 1446.74 576.123 1446.28 577.128L1432.5 607.298V602.485L1444.46 576.297L1441.24 574.825L1432.5 593.959V589.146L1439.42 573.994Z" fill="#EE3124"/>
<line x1="988" y1="622.5" x2="1082" y2="622.5" stroke="#EE3124" stroke-width="2"/>
<line x1="1174" y1="622" x2="1240" y2="622" stroke="#EE3124" stroke-width="2"/>
<line x1="1333" y1="622.5" x2="1396" y2="622.5" stroke="#EE3124" stroke-width="2"/>
<line x1="1490" y1="622" x2="1602" y2="622" stroke="#EE3124" stroke-width="2"/>
<path d="M1520.75 1.5V412.5H1601.75" stroke="#EE3124" stroke-width="2"/>
<rect x="1100" y="143.5" width="368" height="101" stroke="#EE3124" stroke-width="2"/>
<rect x="1100" y="244.5" width="368" height="101" stroke="#EE3124" stroke-width="2"/>
<rect x="1149" y="276.5" width="85" height="8" rx="4" stroke="#EE3124" stroke-width="2"/>
<rect width="85" height="8" rx="4" transform="matrix(1 0 0 -1 1149 212.5)" stroke="#EE3124" stroke-width="2"/>
<rect x="1333" y="276.5" width="85" height="8" rx="4" stroke="#EE3124" stroke-width="2"/>
<rect width="85" height="8" rx="4" transform="matrix(1 0 0 -1 1333 212.5)" stroke="#EE3124" stroke-width="2"/>
<rect x="1163" y="295.5" width="57" height="22" rx="1" stroke="#EE3124" stroke-width="2"/>
<rect width="57" height="22" rx="1" transform="matrix(1 0 0 -1 1163 193.5)" stroke="#EE3124" stroke-width="2"/>
<rect x="1347" y="295.5" width="57" height="22" rx="1" stroke="#EE3124" stroke-width="2"/>
<rect width="57" height="22" rx="1" transform="matrix(1 0 0 -1 1347 193.5)" stroke="#EE3124" stroke-width="2"/>
<line x1="1285" y1="143.5" x2="1285" y2="345.5" stroke="#EE3124" stroke-width="2"/>
<circle cx="1192" cy="104.5" r="27" stroke="#EE3124" stroke-width="2"/>
<circle cx="1192" cy="384.5" r="27" stroke="#EE3124" stroke-width="2"/>
<circle cx="1376" cy="104.5" r="27" stroke="#EE3124" stroke-width="2"/>
<circle cx="1376" cy="384.5" r="27" stroke="#EE3124" stroke-width="2"/>
<line x1="668.819" y1="199.345" x2="769.737" y2="79.0755" stroke="#EE3124" stroke-width="2"/>
<line x1="760.728" y1="277.623" x2="862.931" y2="155.822" stroke="#EE3124" stroke-width="2"/>
<circle cx="282.5" cy="419" r="62.5" stroke="#EE3124" stroke-width="2"/>
<circle cx="667.5" cy="727" r="40.5" stroke="#EE3124" stroke-width="2"/>
<circle cx="424.5" cy="262" r="62.5" stroke="#EE3124" stroke-width="2"/>
<circle cx="424.5" cy="262" r="30.5" stroke="#EE3124" stroke-width="2"/>
<circle cx="424.5" cy="262" r="12.5" stroke="#EE3124" stroke-width="2"/>
<rect width="12.0087" height="67.464" rx="6.00437" transform="matrix(0.418507 -0.908214 -0.908214 -0.418507 561.614 338.809)" stroke="#EE3124" stroke-width="2"/>
<path d="M573.9 316.095C565.807 309.458 554.156 310.049 546.77 317.094L548.741 318.002C555.425 312.16 565.541 311.826 572.632 317.642C580.532 324.121 581.684 335.778 575.205 343.678C568.726 351.578 557.069 352.73 549.169 346.251C544.618 342.519 542.308 337.069 542.404 331.608L540.439 330.703C540.059 337.04 542.617 343.464 547.901 347.798C556.655 354.977 569.572 353.7 576.752 344.946C583.931 336.192 582.655 323.275 573.9 316.095Z" fill="#EE3124"/>
<rect width="15.0324" height="97.2251" rx="7.51621" transform="matrix(0.994584 -0.103934 -0.103934 -0.994584 189.29 540.106)" stroke="#EE3124" stroke-width="2"/>
<path d="M185.064 509.222C177.272 506.174 172.341 498.047 173.652 489.427C174.464 484.09 177.506 479.645 181.685 476.892L181.455 474.68C176.374 477.673 172.631 482.842 171.675 489.127C170.168 499.037 176.099 508.362 185.295 511.433L185.064 509.222ZM211.82 495.233C213.316 485.396 207.484 476.135 198.404 472.996L198.636 475.219C206.31 478.329 211.142 486.389 209.842 494.933C209.042 500.192 206.078 504.585 201.993 507.346L202.225 509.571C207.213 506.562 210.875 501.442 211.82 495.233Z" fill="#EE3124"/>
<rect width="15.0324" height="97.2251" rx="7.51621" transform="matrix(0.992853 0.119343 0.119343 -0.992853 769.462 589.298)" stroke="#EE3124" stroke-width="2"/>
<path d="M772.195 558.246C765.273 553.545 762.269 544.526 765.46 536.413C767.436 531.389 771.388 527.73 776.074 525.973L776.34 523.764C770.721 525.555 765.925 529.765 763.598 535.681C759.93 545.01 763.644 555.418 771.929 560.452L772.195 558.246ZM801.387 550.543C805.029 541.282 801.397 530.958 793.24 525.883L792.973 528.102C799.766 532.837 802.689 541.768 799.526 549.811C797.579 554.761 793.714 558.388 789.118 560.173L788.851 562.394C794.381 560.567 799.089 556.387 801.387 550.543Z" fill="#EE3124"/>
<rect width="15.0324" height="97.2251" rx="7.51621" transform="matrix(0.265642 -0.964072 -0.964072 -0.265642 628.541 257.341)" stroke="#EE3124" stroke-width="2"/>
<path d="M598.241 250.022C592.563 256.168 583.197 257.797 575.648 253.436C570.974 250.735 567.943 246.282 566.902 241.387L564.758 240.795C565.694 246.618 569.144 251.987 574.648 255.167C583.328 260.182 594.173 258.057 600.383 250.612L598.241 250.022ZM594.963 220.008C586.347 215.03 575.598 217.087 569.366 224.398L571.521 224.993C577.213 218.979 586.48 217.416 593.963 221.74C598.569 224.402 601.58 228.763 602.663 233.574L604.819 234.167C603.835 228.427 600.4 223.15 594.963 220.008Z" fill="#EE3124"/>
<rect x="304.148" y="293.833" width="12.0087" height="67.464" rx="6.00437" transform="rotate(-56.3628 304.148 293.833)" stroke="#EE3124" stroke-width="2"/>
<path d="M317.048 271.462C326.944 274.873 332.549 285.104 330.422 295.088L328.615 293.885C330.086 285.131 325.066 276.342 316.396 273.353C306.737 270.022 296.206 275.153 292.876 284.813C289.546 294.472 294.677 305.002 304.336 308.332C309.901 310.25 315.753 309.36 320.352 306.415L322.154 307.614C316.957 311.26 310.145 312.45 303.685 310.223C292.981 306.533 287.295 294.864 290.986 284.161C294.676 273.457 306.344 267.772 317.048 271.462Z" fill="#EE3124"/>
<rect x="435" y="444.311" width="52" height="52" transform="rotate(-28.4982 435 444.311)" stroke="#EE3124" stroke-width="2"/>
<rect x="531" y="476.5" width="52" height="52" stroke="#EE3124" stroke-width="2"/>
<path fill-rule="evenodd" clip-rule="evenodd" d="M555.508 530.001C545.16 551.029 523.52 565.5 498.5 565.5C498.384 565.5 498.269 565.498 498.153 565.497L499.034 563.496C522.689 563.295 543.158 549.74 553.27 530.001H555.508ZM446.649 468.913C440.541 478.466 437 489.82 437 502C437 516.023 441.694 528.949 449.595 539.294L448.679 541.374C440.114 530.552 435 516.873 435 502C435 489.029 438.889 476.967 445.564 466.915L446.649 468.913ZM498.5 438.5C523.916 438.5 545.843 453.432 555.99 475.001H553.771C543.773 454.57 522.78 440.5 498.5 440.5C496.952 440.5 495.418 440.558 493.899 440.67L492.855 438.748C494.715 438.584 496.598 438.5 498.5 438.5Z" fill="#EE3124"/>
<rect x="459.943" y="519.5" width="52" height="52" transform="rotate(23.751 459.943 519.5)" stroke="#EE3124" stroke-width="2"/>
<rect x="259.438" y="597.5" width="54.6265" height="54.6265" transform="rotate(60.2731 259.438 597.5)" stroke="#EE3124" stroke-width="2"/>
<rect x="307.438" y="672.086" width="54.6265" height="54.6265" transform="rotate(40.6137 307.438 672.086)" stroke="#EE3124" stroke-width="2"/>
<rect x="373.403" y="727.307" width="54.6265" height="54.6265" transform="rotate(19.1717 373.403 727.307)" stroke="#EE3124" stroke-width="2"/>
</svg>
