<svg width="73" height="57" viewBox="0 0 73 57" fill="none" xmlns="http://www.w3.org/2000/svg">
<path d="M5.34683 54H1.83449V38.1258H12.9994V41.3045H5.34683V44.1301H11.2531V47.3089H5.34683V54ZM23.7186 47.9368L27.4664 54H23.4243L20.2847 48.29C17.7731 48.29 17.3807 48.29 17.3807 48.29V54H13.8683V38.1258H21.207C24.6604 38.1258 26.7796 40.6178 26.7796 43.2471C26.7796 45.2682 25.5827 47.2304 23.7186 47.9368ZM17.3807 45.2093H21.4817C22.6982 45.2093 23.699 44.4637 23.699 43.2471C23.699 42.0109 22.6982 41.2064 21.4817 41.2064H17.3807V45.2093ZM38.4379 54L37.2017 50.7231H31.3543L30.1181 54H26.7824L32.6101 38.1258H36.2991L41.7933 54H38.4379ZM32.4532 47.7994H36.1029L34.278 42.9724L32.4532 47.7994ZM54.6368 38.1258H58.3258V54H54.99V44.915L51.4384 54H48.8091L45.2575 44.8954V54H41.9217V38.1258H45.591L50.1237 50.625L54.6368 38.1258ZM60.1449 38.1258H71.4865V41.3045H63.5788V44.1301L70.1718 44.1694V47.3285L63.5788 47.3089V50.8409H71.4865V54H60.1449V38.1258Z" fill="#5F6673"/>
<path d="M1.83442 0.125763H8.44705C11.3707 0.125763 13.4114 2.46079 13.4114 4.77619C13.4114 6.73839 12.0771 8.09231 11.5473 8.09231C13.0386 8.09231 14.5691 9.70132 14.5691 11.742C14.5691 13.9004 12.8816 16 9.95795 16H1.83442V0.125763ZM5.34677 3.20642V6.52255H8.74139C9.644 6.52255 10.37 5.75729 10.37 4.8743C10.37 3.99131 9.60476 3.20642 8.76101 3.20642H5.34677ZM9.74211 12.9193C10.6447 12.9193 11.3707 12.1933 11.3707 11.2907C11.3707 10.3685 10.6251 9.60321 9.70287 9.60321H5.34677V12.9193H9.74211ZM25.5175 0.10614H28.6374V9.91717C28.6374 13.4099 26.6948 16.2943 22.1032 16.2943C17.5902 16.2943 15.5887 13.4099 15.5887 9.91717V0.10614H18.689V9.87792V9.99565C18.689 12.4877 20.5531 13.1744 22.1032 13.1744C23.673 13.1744 25.5175 12.4877 25.5175 9.97603V9.87792V0.10614Z" fill="#5F6673"/>
<path d="M64.6112 9.93841L62.4724 10.5859L63.8656 12.5481L62.5902 13.4311L61.2166 11.4689L59.8431 13.4311L58.5676 12.5481L59.9608 10.5663L57.8613 9.93841L58.3126 8.44714L60.3729 9.07504V6.74002H62.08V9.07504L64.1599 8.44714L64.6112 9.93841Z" fill="#5F6673"/>
<path d="M11.2169 28.5667L14.9647 34.6299H10.9225L7.78301 28.9199C5.27138 28.9199 4.87894 28.9199 4.87894 28.9199V34.6299H1.3666V18.7556H8.70524C12.1587 18.7556 14.2779 21.2476 14.2779 23.877C14.2779 25.8981 13.081 27.8603 11.2169 28.5667ZM4.87894 25.8392H8.97995C10.1965 25.8392 11.1972 25.0936 11.1972 23.877C11.1972 22.6408 10.1965 21.8363 8.97995 21.8363H4.87894V25.8392ZM15.9682 18.7556H27.3097V21.9344H19.402V24.76L25.995 24.7992V27.9584L19.402 27.9388V31.4707H27.3097V34.6299H15.9682V18.7556ZM39.1006 34.6299L37.8644 31.353H32.017L30.7808 34.6299H27.4451L33.2728 18.7556H36.9618L42.4559 34.6299H39.1006ZM33.1158 28.4293H36.7655L34.9407 23.6023L33.1158 28.4293ZM51.6467 18.736H54.7666V28.547C54.7666 32.0398 52.824 34.9242 48.2325 34.9242C43.7194 34.9242 41.718 32.0398 41.718 28.547V18.736H44.8182V28.5078V28.6255C44.8182 31.1175 46.6823 31.8043 48.2325 31.8043C49.8022 31.8043 51.6467 31.1175 51.6467 28.6059V28.5078V18.736Z" fill="#5F6673"/>
<path d="M33.0787 1.98438H69.3465V35.0552" stroke="#5F6673" stroke-width="3"/>
</svg>
