<svg width="73" height="57" viewBox="0 0 73 57" fill="none" xmlns="http://www.w3.org/2000/svg">
<path d="M4.898 53.811H1.38565V37.9368H12.5506V41.1156H4.898V43.9411H10.8042V47.1199H4.898V53.811ZM23.2698 47.7478L27.0176 53.811H22.9754L19.8359 48.101C17.3243 48.101 16.9318 48.101 16.9318 48.101V53.811H13.4195V37.9368H20.7581C24.2116 37.9368 26.3308 40.4288 26.3308 43.0582C26.3308 45.0792 25.1338 47.0414 23.2698 47.7478ZM16.9318 45.0204H21.0328C22.2494 45.0204 23.2501 44.2747 23.2501 43.0582C23.2501 41.822 22.2494 41.0175 21.0328 41.0175H16.9318V45.0204ZM37.989 53.811L36.7529 50.5342H30.9055L29.6693 53.811H26.3336L32.1613 37.9368H35.8502L41.3444 53.811H37.989ZM32.0043 47.6105H35.654L33.8292 42.7834L32.0043 47.6105ZM54.188 37.9368H57.8769V53.811H54.5412V44.726L50.9896 53.811H48.3602L44.8086 44.7064V53.811H41.4729V37.9368H45.1422L49.6749 50.436L54.188 37.9368ZM59.6961 37.9368H71.0376V41.1156H63.13V43.9411L69.723 43.9804V47.1395L63.13 47.1199V50.6519H71.0376V53.811H59.6961V37.9368Z" fill="#2B2F36"/>
<path d="M1.83444 0.125763H8.44707C11.3708 0.125763 13.4115 2.46079 13.4115 4.77619C13.4115 6.73839 12.0772 8.09231 11.5474 8.09231C13.0386 8.09231 14.5692 9.70132 14.5692 11.742C14.5692 13.9004 12.8817 16 9.95797 16H1.83444V0.125763ZM5.34679 3.20642V6.52255H8.7414C9.64402 6.52255 10.37 5.75729 10.37 4.8743C10.37 3.99131 9.60478 3.20642 8.76103 3.20642H5.34679ZM9.74213 12.9193C10.6447 12.9193 11.3708 12.1933 11.3708 11.2907C11.3708 10.3685 10.6251 9.60321 9.70289 9.60321H5.34679V12.9193H9.74213ZM25.5175 0.10614H28.6374V9.91717C28.6374 13.4099 26.6948 16.2943 22.1033 16.2943C17.5902 16.2943 15.5887 13.4099 15.5887 9.91717V0.10614H18.689V9.87792V9.99565C18.689 12.4877 20.5531 13.1744 22.1033 13.1744C23.673 13.1744 25.5175 12.4877 25.5175 9.97603V9.87792V0.10614Z" fill="#2B2F36"/>
<path d="M64.6112 9.93817L62.4724 10.5857L63.8656 12.5479L62.5902 13.4309L61.2166 11.4687L59.8431 13.4309L58.5676 12.5479L59.9608 10.5661L57.8613 9.93817L58.3126 8.44689L60.3729 9.0748V6.73978H62.08V9.0748L64.1599 8.44689L64.6112 9.93817Z" fill="#FD3D06"/>
<path d="M11.2169 28.5667L14.9647 34.6299H10.9225L7.78301 28.9199C5.27138 28.9199 4.87894 28.9199 4.87894 28.9199V34.6299H1.3666V18.7556H8.70524C12.1587 18.7556 14.2779 21.2476 14.2779 23.877C14.2779 25.8981 13.081 27.8603 11.2169 28.5667ZM4.87894 25.8392H8.97995C10.1965 25.8392 11.1972 25.0936 11.1972 23.877C11.1972 22.6408 10.1965 21.8363 8.97995 21.8363H4.87894V25.8392ZM15.9682 18.7556H27.3097V21.9344H19.402V24.76L25.995 24.7992V27.9584L19.402 27.9388V31.4707H27.3097V34.6299H15.9682V18.7556ZM39.1006 34.6299L37.8644 31.353H32.017L30.7808 34.6299H27.4451L33.2728 18.7556H36.9618L42.4559 34.6299H39.1006ZM33.1158 28.4293H36.7655L34.9407 23.6023L33.1158 28.4293ZM51.6467 18.736H54.7666V28.547C54.7666 32.0398 52.824 34.9242 48.2325 34.9242C43.7194 34.9242 41.718 32.0398 41.718 28.547V18.736H44.8182V28.5078V28.6255C44.8182 31.1175 46.6823 31.8043 48.2325 31.8043C49.8022 31.8043 51.6467 31.1175 51.6467 28.6059V28.5078V18.736Z" fill="#2B2F36"/>
<path d="M33.0787 1.98413H69.3464V35.055" stroke="#2B2F36" stroke-width="3"/>
</svg>
